<?xml version="1.0" encoding="utf-8"?>
<!-- Generator: Adobe Illustrator 19.0.0, SVG Export Plug-In . SVG Version: 6.00 Build 0)  -->
<svg version="1.1" xmlns="http://www.w3.org/2000/svg" xmlns:xlink="http://www.w3.org/1999/xlink" x="0px" y="0px"
	 viewBox="0 0 595.3 841.9" style="enable-background:new 0 0 595.3 841.9;" xml:space="preserve">
<style type="text/css">
	.st0{fill:#FECC03;}
	.st1{fill:#FEFDFB;}
	.st2{fill:#0E0504;}
	.st3{fill:#8A8881;}
</style>
<g id="Layer_1">
	<g>
		<path class="st0" d="M2542.1,1139.7c-1583.2,0-3166.4,0-4749.8,0c0-391.1,0-782.3,0-1173.7c1583.1,0,3166.4,0,4749.8,0
			C2542.1,357.1,2542.1,748.4,2542.1,1139.7z M1850.3,327.7c-0.8-0.7-1.5-1.3-2.3-2c0,0,0.2,0.2,0.2,0.2c-1.4-2.2-2.5-4.6-4.2-6.6
			c-16.3-18.7-29.2-39.2-36-63.5c-6.2-22.1-5.2-43.6,4.4-64.2c7.9-17,20.9-28.2,41.3-27.1c4.9,0.3,9.9,0.6,14.8,0.9
			c1.3,1.9,3.2,3.6,3.9,5.7c3.5,10.7,7.1,21.3,9.9,32.1c1.9,7.2,2.5,8.3,9.9,7.3c4.6-0.7,9.2-1.3,13.8-2c1.3,6.5,2.8,13,4,19.5
			c0.8,4,3,5.7,7,5.2c2.3-0.3,4.6-0.5,6.9-0.9c20.3-3.7,40.5-7.5,60.7-11.4c4.7-0.9,9.4-2.5,13.3-3.5c0.6-1.4,0.8-1.7,0.8-2
			c-0.4-3.6-0.6-7.3-1.2-10.9c-5.2-34-18-64.5-42.8-89.1c-4.8-4.8-11.1-8-16.7-12c0,0,0.1,0.1,0.1,0.1c-0.6-0.5-1.2-1-1.8-1.5
			c-2.4-2.2-5-4.4-7.3-6.8c-13.6-14.3-30.1-23.8-48.6-30c-25.4-8.6-51.3-10.6-77.8-7.6c-46.9,5.4-81.2,29.2-103.2,70.7
			c-8.9,16.9-13.5,35.3-15.8,54.3c-4,33.4-0.1,65.7,12.4,97c9.3,23.3,23.5,43.7,40.5,61.4c31.3,32.6,64,63.9,96.9,94.9
			c14.4,13.6,27.3,28.1,37.6,44.9c15.5,25.3,17.5,71.9-4,94.9c-12.4,13.3-39.3,26.1-59.4,16.3c-0.6-1.9-1-3.9-2-5.6
			c-7.6-12.7-11.7-26.7-14.6-41.1c-1-5.2-1.8-10.5-2.9-15.7c-1.5-6.7-2.9-7.6-9.6-6.9c-4.6,0.5-9.2,0.9-13.9,1.3
			c-1.8-7.3-3.6-14.6-5.7-22.7c-6.2,0.3-12.1,0.5-18,0.8c-19.5,1.2-39.1,2.4-58.6,3.7c-8.7,0.6-10,1.7-9.3,10.2
			c0.8,8.9,2.1,17.8,3.7,26.6c3.4,19.7,9.2,38.9,18.2,56.7c13.1,25.9,31.4,47.6,56.7,62.6l0.2,0.1c0.4,0.3,0.8,0.6,1.2,0.9
			c2.8,3.2,5.1,7.3,8.5,9.5c10.9,6.9,21.9,14,33.6,19.3c24.9,11.3,51.7,12.3,78.4,10.5c22.5-1.6,43.9-7.7,63.4-19.4
			c29.8-17.9,47.8-45.3,58.2-77.3c17.2-53.4,7.9-104-21.4-151c-8.4-13.5-17.6-26.6-27.8-38.8c-11.1-13.2-23.6-25.3-35.7-37.6
			c-2.2-2.2-5.6-3.2-8.5-4.7c0,0,0.2,0.1,0.2,0.1c-1.4-1.4-2.8-2.8-4.2-4.1c0,0,0.2,0.2,0.2,0.2c-0.8-0.7-1.6-1.4-2.4-2.1
			c-0.5-0.5-0.9-1-1.4-1.5c-1.2-1.3-2.4-2.6-3.6-3.9c-10.9-9.2-21.7-18.4-32.6-27.6c-0.4-0.5-0.9-1-1.3-1.5l-0.3-0.2
			c-1-0.9-2.1-1.8-3.1-2.7l0.1,0.1c-1.1-1-2.3-1.9-3.4-2.9C1850.1,327.6,1850.3,327.7,1850.3,327.7z M98.4,109.6l-0.1-0.2
			c-1.1-0.9-2.1-1.8-3.2-2.6c-10.2-8.5-19.7-18.3-30.9-25.2c-21-13-44.4-19.4-69.3-19.5c-46-0.2-92-0.3-138-0.4
			c-9.5,0-10.3,1-10.6,10.2c0,1,0,2,0,3c0,194.6,0,389.3,0.1,583.9c0,2.3-0.1,4.7,0,7c0.3,9,1.1,9.8,9.8,9.9
			c5.7,0.1,11.3,0.2,17,0.4c-0.1,5-0.2,10-0.2,15c0,4,1.9,6.2,6,6.4c2.3,0.1,4.7,0.1,7,0.1c42,0.1,84,0.2,125.9,0.1
			c8.6,0,17.4-0.1,25.9-1.3c22.4-3,42.8-10.7,61.6-24c19.8-14,35.1-31.5,46.6-52.4c12.4-22.3,16.7-46.7,16.5-72.2
			c-0.3-55,0-109.9-0.1-164.9c-0.1-54.6,0-109.3-0.4-163.9c-0.1-18.2-5.4-35.4-13.2-51.8c-7.6-16.1-17.9-30.5-30.7-42.7
			c-4.6-4.4-8.6-10.4-15.9-11l0.1,0.1C100.9,112.4,99.7,111,98.4,109.6z M2065.8,164.4c0.9,16.8-0.9,12.6,12.7,18.1
			c-1,0.5-1.9,1.1-2.9,1.6c-0.3-1-1.1-2.9-0.9-3c1.9-1.1,4-2.6,6-2.6c16-0.2,32-0.2,47.9,0.1c5.6,0.1,7.7,2.5,7.9,8.1
			c0.2,4-0.2,8-0.2,12c0,154.5,0,309,0,463.5c0,2.3,0.1,4.7,0,7c-0.2,5.2,2.4,6.9,7.4,6.9c6.6-0.1,13.3,0.4,19.9,0.6
			c-0.2,6.2-0.3,12.4-0.5,18.5c0.2,0,0.4,0,0.6,0c-0.2,0-0.4,0-0.6,0c3.4,0.9,6.9,2.6,10.3,2.6c23.3,0.2,46.7,0.1,70-0.1
			c3.9,0,7.8-0.6,12.7-1c0-5.1,0-9.3,0-13.6c0-163,0-325.9,0-488.9c0-3-0.5-6.2,0.4-8.9c0.7-2,3-4.1,5-4.9c2.4-0.9,5.3-0.3,7.9-0.3
			c24.3,0,48.7,0.1,73,0.1c10.1,0,10.7-0.6,10.8-10.8c0.1-14.3,0-28.7,0-43c0-10,0-20-0.1-30c0-4.6-0.6-8.8-6.4-9.6l0.1,0.2
			c-6.3,0.1-12.6,0.3-18.9,0.4c-1.2-7.4-2.3-14.7-3.5-22.2c-95.1,0-189.6,0-283.8,0c-2.8,10.8-2.2,83.7,0.7,92.2
			c8,0.5,16.3,0.9,24.5,1.4c-0.1,2.1-0.2,4.2-0.2,6.3c-0.2,0-0.4,0-0.6,0C2065.4,164.8,2065.6,164.6,2065.8,164.4z M680,664
			c0,0-0.2-0.1-0.2-0.1c2,2.6,3.6,5.7,6.1,7.7c17.8,14.5,37.7,24.4,60.5,28.7c32.4,6.1,63.5,3.4,93-12c4.3,2.2,8.5,4.4,12.8,6.7
			c3.1,3.8,5.6,8.5,9.4,11.3c20.7,15.6,44.6,21.5,70.2,21.4c4.9,0,7.4-2.3,7.4-7.2c0-5,0-10,0-15c0-18.3-0.1-36.6,0-54.9
			c0-5-1.2-7.9-6.8-8.9c-6.8-1.2-13.4-3.7-20-5.7c-0.9-5.5-1.9-10.9-2.8-16.4c2-5.6,3.9-11.3,6-16.9c4.7-12.9,7.6-26.2,7.6-40
			c0-35.6,0.2-71.3,0.2-106.9c0-78.9,0.3-157.8-0.4-236.7c-0.1-13.8-2.8-27.9-6.9-41.1c-8.8-28.4-26.1-51.3-49.6-69.6
			c-1.5-1.1-3.5-1.5-5.3-2.2c0,0,0.6,0,0.6,0c-0.8-0.7-1.7-1.3-2.5-2c-0.5-0.4-1-0.9-1.5-1.4c-0.1-0.5-0.3-0.8-0.8-0.8
			c-8.9-7.5-17.2-15.8-26.7-22.3c-33.2-22.6-70.2-27.5-109-20.5c-60.8,11-116.9,68.4-116.7,141.6c0.3,111.2,0,222.5,0.1,333.7
			c0,20.1,3.4,39.6,11.5,58.3c12.8,29.9,34.5,51.7,61.2,69.2C678.3,662.7,679.2,663.3,680,664z M-447.8,663.8l-0.1-0.1
			c2.7,3.2,4.9,7,8.1,9.5c4.1,3.3,9,5.6,13.6,8.4c34.9,21,72.5,22.6,111,14.5c17-3.6,32.3-11.6,46.6-21.9
			c19.5-14.1,35.4-31.2,46.4-52.5c11.6-22.4,14.8-46.6,14.8-71.6c-0.2-150.9,0-301.7,0-452.6c0-3.2-0.5-6.4-0.7-10
			c-9.1-0.4-17.3-0.8-25.5-1.2c-0.4-6.9-0.7-13.8-1.1-21.2c-31.8,0-62.9,0-94.9,0c-0.2,3.9-0.5,7.2-0.5,10.4
			c0,149-0.1,297.9-0.1,446.9c0,5,0,10-0.3,15c-1.2,16-8.9,28.9-21.7,37.8c-15.7,10.9-33.3,12.6-51.4,5.3
			c-4.3-14.5-4.8-29.4-4.7-44.4c0.2-143.2,0.1-286.3,0.1-429.5c0-4,0.3-8,0-12c-0.4-5.8-2.1-7.5-8-8c-5.9-0.4-11.9-0.5-17.9-0.8
			c-0.5-4.3-1.1-8.6-1.4-12.8c-0.5-7.6-1.4-8.7-8.8-8.7c-24.3,0-48.6,0.1-72.9,0.3c-2.5,0-5,0.6-8.5,1.1c0,7.3,0,13.9,0,20.6
			c0,120.5,0,241,0.1,361.5c0,29,0,57.9,0.1,86.9c0,21.6,3.9,42.5,13.6,61.8c13.7,27.5,34.2,48.9,60.6,64.5
			C-450.3,661.9-449.1,662.8-447.8,663.8z M-959.2,80.9c-0.3-5.2-0.7-10.3-1-15.7c-2.6-0.2-4.2-0.5-5.8-0.5
			c-25.6-0.1-51.3-0.3-76.9-0.3c-7.5,0-8.3,1-8.6,8.8c-0.1,3-0.1,6-0.1,9c0,193.5,0,386.9,0,580.4c0,2.3,0.1,4.7,0.1,7
			c0,4.1,2.2,6,6.2,6c6.7,0.1,13.3,0.3,19.9,0.5c0.1,3.7,0.1,7.3,0.3,11c0.5,9.5,1.3,10.4,10.5,10.5c24,0.1,48,0.2,72,0.2
			c9.9,0,10.4-0.7,10.4-11.1c0-196,0-392-0.1-587.9c0-1.7,0-3.3,0-5c0.1-5.1-2.5-7.2-7.4-7.2c-6.3,0-12.7-0.1-19-0.1
			c-0.2-1.9-0.4-3.9-0.6-5.8L-959.2,80.9z M-1515.1,581.5c-0.2-6-0.6-11.9-0.6-17.9c0-148.8,0-297.6,0-446.4c0-7.3,0.3-14.6,0.1-22
			c-0.1-6.6-1.7-8.2-8.3-8.6c-6-0.3-11.9-0.1-17.9-0.1c-0.6-7.1-1.3-14.3-1.9-21.1c-19.5-2.3-84-1.2-90.4,1.4
			c0,202.4,0,404.8,0,608.2c9.2,0.3,17.7,0.6,26.2,0.9c0,4-0.1,8,0,12c0.1,8.6,1.2,9.8,9.7,9.8c76.8,0,153.6,0,230.4-0.1
			c10,0,11-1,11-10.7c0-22.6,0-45.2-0.2-67.8c0-4.6-0.8-9.1-1.3-14.9c-8.9-0.1-17.1-0.2-25.4-0.3c-0.2-4.3-0.5-8.6-0.5-13
			c-0.1-8.6-0.3-8.9-9.1-8.9c-28,0-56,0.1-84,0C-1489.8,582.1-1502.4,581.7-1515.1,581.5z M-860.4,158.5c0.1,3.6,0.3,7.3,0.4,10.9
			c0.2,10,0.8,10.5,11,10.6c19.6,0.1,39.2,0.2,58.8,0.2c0.2,5.6,0.5,11.3,0.5,16.9c0,153.8,0,307.5,0,461.3c0,3.3-0.2,6.7,0.1,10
			c0.2,2.2,1,4.3,1.8,7.4c8.7,0,16.9,0,25.2,0c0.1,4.3,0,8.7,0.2,13c0.4,8.2,1.3,9,9.6,9c24,0,48,0,72-0.2c9.8,0,10.2-0.5,10.7-10
			c0.1-1.3,0.1-2.7,0.1-4c0-162.9,0-325.8-0.1-488.8c0-15-1.4-15.1,15.4-15c24,0.2,48,0.2,72,0.1c8,0,9.2-0.9,9.2-8.3
			c0.2-25.7,0.3-51.3,0.2-77c0-6.2-1.5-7.4-7.8-7.8c-6-0.3-12-0.4-18-0.6c-0.7-7.1-1.3-14.3-2.1-21.9c-3.7,0-6.3,0-9,0
			c-89.3,0-178.6,0-267.9,0c-8.1,0-9.2,0.7-9.3,9c-0.1,25.7,0,51.3,0.2,77c0,2.2,0.9,4.3,1.5,6.8
			C-877,157.8-868.7,158.2-860.4,158.5z M-1124.8,87c-0.6-7.2-1.1-14.4-1.7-21.4c-1.8-0.6-2.7-1.1-3.6-1.1
			c-93.6,0.2-187.2,0.4-280.9,0.6c-0.3,0-0.6,0.3-0.8,0.5c-0.2,0.2-0.4,0.5-1.1,1.3c0,5.8,0.1,12,0,18.3c-0.2,21.3-0.5,42.6-0.7,64
			c-0.1,7.4,1.2,8.6,8.6,8.8c6.3,0.2,12.6,0.5,19,0.7c0,4.3-0.1,8.6,0.1,12.9c0.3,7.8,1.8,9.1,9.5,9c20.2-0.2,40.3-0.4,60.5-0.6
			c0.2,7,0.6,14,0.6,20.9c0,153.2,0,306.4,0,459.5c0,2.3-0.1,4.7,0,7c0.4,6.8,1.3,7.8,8.5,8.1c6,0.3,12,0.4,17.9,0.5
			c0,4.3,0,8.6,0.1,12.9c0.2,6.8,2.1,8.8,9,8.8c24.7,0,49.3,0,74-0.1c8.7-0.1,10.1-1.6,10.1-10.9c0-80-0.1-160-0.2-239.9
			c0-83.6,0-167.3,0-250.9c0-4.9,0.5-9.7,0.8-15.7c32.4,0,63.9,0,94.7,0c0.9-1.7,1.5-2.3,1.5-2.8c0.1-27.6,0.3-55.3,0.2-82.9
			c0-5.7-2.1-7.6-8.1-7.8C-1112.8,86.5-1118.8,86.9-1124.8,87z M1466.2,321.5c-0.1-4.7-0.4-9.3-0.4-14c0-37.7,0-75.3,0-113
			c0-15.7-2.7-17.2,16.7-17.1c46,0.1,92,0,138,0c15.2,0,15.2,0,15.2-15.6c0-19.7,0-39.3,0-59c0-3.7,0.3-7.3,0.1-11
			c-0.3-6.2-1.6-7.5-7.8-7.8c-6.3-0.3-12.6-0.2-19-0.3c-0.1-1.7-0.1-3.4-0.2-5.1l0,0.3c-0.4-5.2-0.7-10.4-1-15.3
			c-11.6-2.8-251.4-2.4-260.7,0.4c0,203.2,0,406.6,0,611.1c9.2,0.3,17.7,0.6,26.3,0.9c-0.1,4-0.5,8-0.4,11.9
			c0.3,8.4,1.6,9.6,10.2,9.8c1.7,0,3.3,0,5,0c77.9,0,155.7,0,233.6,0c2.7,0,5.3,0,8-0.1c3.6-0.1,5.4-2.3,5.8-5.6c0.2-2,0.2-4,0.2-6
			c0-22.6,0-45.2-0.1-67.9c0-2.7-0.1-5.3-0.2-8c-0.1-4.1-2.3-6-6.3-6c-6.7-0.1-13.3-0.2-20-0.3c-0.3-4-0.7-7.9-0.8-11.9
			c-0.3-9.7-0.2-9.9-10.4-9.9c-32,0-63.9,0.1-95.9,0.1c-12,0-24-0.4-35.9-0.5c-0.1-3-0.4-6-0.4-9c0-40,0-79.9,0-119.9
			c0-15,0-15,14.8-15c33,0,65.9,0,98.9,0c9.7,0,10.3-0.6,10.3-10.1c0.1-24.6,0.1-49.3,0.1-73.9c0-8-1.3-9.4-9.1-9.6
			c-5.7-0.2-11.3-0.1-17-0.1c-0.3-4.3-1-8.6-1-12.8c0.1-8.6,0-8.8-8.8-9c-4.7-0.1-9.3,0-14,0
			C1515.4,321.9,1490.8,321.7,1466.2,321.5z M242.7,676.1c0,4.7-0.1,9.3,0.2,14c0.3,6.5,1.1,7.2,7.7,7.6c2,0.1,4,0,6,0
			c79,0,157.9,0,236.9,0c1.3,0,2.7,0.1,4,0c6.2-0.4,7.6-1.8,7.6-7.9c0-7.3-0.4-14.6-0.5-22c-0.1-18,0-36-0.1-54
			c-0.1-8.8-1-9.6-9.9-9.8c-5.3-0.1-10.7-0.2-16-0.3c-0.5-6.8-1-13.7-1.5-21.6c-3.8,0-7,0-10.2,0c-39.6,0-79.2,0-118.8-0.1
			c-4,0-8-0.3-11.9-0.5c-0.2-4.6-0.7-9.3-0.7-13.9c-0.1-37.6,0.1-75.3-0.1-112.9c-0.1-17.1-0.5-17,16.3-17.1c32.3,0,64.6,0,96.9-0.1
			c10.1,0,10.7-0.7,10.8-10.9c0.1-10,0-20,0-30c0-14.7,0.1-29.3,0-44c-0.1-7.7-1-8.5-8.7-8.9c-6-0.3-12-0.1-18-0.2
			c-0.5-6.8-1-13.6-1.6-21.1c-4.3-0.2-7.9-0.5-11.5-0.5c-23.9-0.1-47.7,0-71.6-0.1c-3.9,0-7.9-0.6-11.8-0.9
			c-0.3-2.3-0.8-4.6-0.8-6.9c0-42.6,0-85.2,0-127.8c0-0.7,0.1-1.3,0-2c-0.1-4.5,1.8-6.9,6.5-6.9c2.7,0,5.3,0,8-0.1
			c46.9,0,93.9,0,140.8,0c2.3,0,4.7,0,7,0c4.7,0.2,6.6-2.3,6.6-6.7c0-1.7,0-3.3,0.1-5c0.2-24.6,0.5-49.2,0.7-73.9
			c0-5.9-1.4-7.5-7.7-7.8c-6.3-0.3-12.6-0.2-19-0.2c-0.5-6.9-0.9-13.7-1.5-21.3c-6.2-0.3-11.8-0.7-17.4-0.7c-75.9,0-151.9,0-227.8,0
			c-3.3,0-6.7,0.1-10,0.3c-3.5,0.2-5.5,2.1-5.8,5.6c-0.2,2.3-0.2,4.7-0.2,7c0,194.5,0,388.9,0.1,583.4c0,3.3-0.1,6.7,0.1,10
			c0.3,6.4,1.4,7.4,7.8,7.6C230.1,676,236.4,676,242.7,676.1z M-2015.5,676.3c-0.6,4.3-1.2,8.5-1.7,12.8c-0.9,6.8,0.3,8.6,7.2,8.6
			c26.9,0.1,53.8,0,80.8-0.3c7.6-0.1,7.6-0.5,8.7-7.8c4.2-27.6,8.2-55.2,12.5-82.8c2.2-14.4,4.9-28.8,7.1-43.2
			c0.8-4.9,2.7-8.2,8.1-8.2c21.3,0.2,42.5,0.4,63.8,0.5c1.6,8.1,3.5,16.2,4.7,24.4c4.4,29.1,8.6,58.3,12.9,87.5
			c1,6.6,2.2,7.4,9.1,7.7c5.3,0.2,10.6,0.4,15.9,0.6c0.7,4.6,1.3,9.2,2.2,13.8c1.5,7.4,1.8,7.8,9,7.8c26.7,0.1,53.3,0.1,80,0
			c8.1,0,9.2-1.3,7.8-9.6c-5.2-31.5-10.4-63-15.7-94.6c-9-53.5-18-107-27-160.5c-9.2-54.8-18.2-109.7-27.4-164.5
			c-7.1-42.7-14.3-85.4-21.5-128.1c-2.5-15.1-4.9-30.2-7.4-45.3c-1.2-7-2.5-8.4-9.7-8.6c-5-0.1-10,0.3-15,0.4
			c-0.7-4.3-1.5-8.5-2.2-12.8c-1.7-9.7-1.8-9.7-11.4-9.7c-34,0-68,0-101.9,0.1c-4.9,0-9.8,0-15.5,0
			c-34.5,203.4-68.9,406.2-103.6,610.3C-2034.5,675.5-2025,675.9-2015.5,676.3z M1097.1,579.9c-1.7-10.4-4.9-20.9-5-31.3
			c-0.3-149.2-0.2-298.4-0.2-447.6c0-2,0.1-4,0-6c-0.5-6.9-1.6-8.1-8.4-8.4c-6-0.3-12-0.2-18-0.3c-0.7-6.8-1.3-13.6-2.1-21.7
			c-6.2,0-11.7,0-17.3,0c-21,0-42,0-63,0.1c-8,0-8.5,0.6-8.7,8.5c-0.1,5-0.2,10-0.2,15c0,147,0,294,0.1,441c0,7.7,0,15.4,1,22.9
			c3,22,9.5,42.7,22.5,61.2c9.5,13.5,20.8,25,33.2,35.6l-0.1-0.3c3.5,2.6,6.9,5.1,10.4,7.7l-0.1,0.5l0.9,0c1.5,1.1,3,2.2,4.6,3.3
			c1.2,1.9,1.9,4.3,3.6,5.5c8,5.9,15.9,12.2,24.5,17.2c28.5,16.5,59.6,20.3,91.7,17.3c9.2-0.9,18.2-3.7,27.2-6.2
			c18.7-5.1,34.6-15.5,49.2-27.8c19.7-16.7,34.2-37,42.8-61.5c6.4-18.2,7.7-37.1,7.7-56.1c0-147.7,0-295.3,0-443c0-3.3,0-6.7-0.1-10
			c-0.2-7.7-0.7-8.3-8.8-8.6c-6-0.2-12-0.2-18-0.3c-0.3-6.9-0.7-13.7-1-21.2c-31.9,0-63,0-95.3,0c0,4.3,0,7.8,0,11.4
			c0,97.6-0.1,195.1-0.1,292.7c0,53.6-0.2,107.2-0.1,160.8c0,8.2-1.8,15.6-4.7,23.2C1155.7,578.2,1123.1,593.1,1097.1,579.9z
			 M159.8,759.7C159.8,759.7,159.8,759.7,159.8,759.7c-725,0-1449.9,0-2174.9,0c-2.3,0-4.7-0.1-7,0.1c-6.4,0.5-8.1,2.2-8.2,7.6
			c-0.1,5.7,2.1,7.9,8.7,8.4c3.3,0.2,6.7,0.1,10,0.1c1435.2,0,2870.5,0,4305.7,0c13.7,0,27.3,0,41,0c2.3,0,4.7,0.1,7-0.2
			c4.9-0.8,7-3.4,6.9-8.2c-0.2-4.9-2.2-7.3-7.3-7.6c-6-0.3-12-0.1-18-0.1C1602.3,759.7,881.1,759.7,159.8,759.7z M160,999.7
			C160,999.7,160,999.7,160,999.7c-725.3,0-1450.6,0-2175.9,0c-2.3,0-4.7,0-7,0.1c-4.7,0.2-7.4,2.3-7.5,7.3c0,5.5,1.8,7.9,7.4,8.5
			c3.6,0.4,7.3,0.2,11,0.2c410.3,0,820.6,0,1230.9,0c1036.9,0,2073.9,0,3110.8,0c3.3,0,6.7,0.1,10-0.1c6.7-0.4,9.2-2.7,9.1-8.1
			c0-5.5-2.4-7.7-9.1-7.9c-6-0.2-12-0.1-18-0.1C1601.3,999.7,880.6,999.7,160,999.7z M-1497.8,820.4c0.7,17.9,1.8,35.1,2,52.3
			c0.2,18-0.6,36-0.8,53.9c-0.1,8.7,2.1,11.2,10.7,12.3c5.3,0.6,10.6,0.9,16,0.9c22-0.2,43.9-0.2,65.9-1
			c17.6-0.7,31.6-9.7,43.3-22.4c7.1-7.7,11.9-16.8,11.1-28c-0.3-4.3,0.1-8.7,0.4-13c0.5-6.6-1.5-12.3-5-17.9
			c-13.7-21.9-33.3-34.6-58.9-36.1c-26.2-1.5-52.6-1.4-78.9-1.9C-1493.4,819.5-1494.7,819.9-1497.8,820.4z M1720.4,936.8
			c-2.8-4.5-5.4-9-8.3-13.3c-5.1-7.4-10.6-14.5-15.5-22.1c-3.9-6.1-2.9-7.4,3.7-10c5.8-2.3,11.7-4.8,16.8-8.3
			c16.6-11.5,15.3-45.7-5.4-53.7c-7.7-3-15.5-6-23.6-7.7c-30.2-6.1-61-3.8-91.6-4.6c-1.5,0-3.1,0.7-5.3,1.2c0,8.6,0.2,16.9,0,25.2
			c-0.8,28.6-1.5,57.2-2.7,85.8c-0.2,4.4,1.2,7.5,4.7,8.8c3.6,1.3,7.7,1.6,11.6,1.8c4.5,0.2,6.4-2.3,6.5-6.8
			c0.3-9.3,1.3-18.6,1.2-27.9c-0.1-13.1,1.8-14.4,15.2-14.7c6-0.1,12,0.5,17.9,0.8c4.3,0.2,8.7,0.8,12.9,0.2
			c7.1-1,11.1,2.1,14.5,7.8c6.3,10.6,13,20.9,19.8,31.2C1699.2,939.6,1708.5,941.8,1720.4,936.8z M180.9,940c0-7.1,0-13.8,0-20.4
			c0-28.6,0.2-57.3,0.1-85.9c0-12.2-4-15.4-16-13.5c-1.2,0.2-2.4,1-4,1.6c-1.4,26.8,0.7,53.7-3.1,81.7c-2.8-2-4.5-2.9-5.8-4.1
			c-24.7-23.3-49.6-46.4-73.8-70.3c-8.8-8.7-17.7-12.1-30.1-8.6c-5,38.3-0.3,76.9-2.6,116c4.2,1.3,7.5,2.9,11,3.3
			c9,1.1,10.4-0.5,10.4-9.4c-0.1-15-0.3-30,0-45c0.2-8.6,1-17.3,1.9-25.9c0.8-6.9,4.3-8.2,10.2-4.2c1.9,1.3,3.7,2.9,5.4,4.5
			c6.7,6.5,13.5,12.9,19.9,19.6c17.4,18.4,34.6,36.9,51.9,55.4C163.3,942.5,171.7,942.6,180.9,940z M2105.8,820.1
			c0,2.9-0.1,4.9,0,6.8c0.6,8.6,2.5,17.4,1.6,25.8c-2.6,23.2,1.9,46.5-2.2,69.7c-2,11.2,2.7,14.8,14.2,14.7
			c14.6-0.2,29.3-0.3,43.9-0.3c21.3,0.1,42.6,0.5,64,0.5c10,0,12.4-3.6,9-13c-0.5-1.5-1.7-2.7-3.3-5.2c-28.9,0-58.2,0-87.5,0
			c-3,0-6,0.1-9-0.1c-6.5-0.5-7.5-1.2-7.8-7.7c-0.4-7-0.3-14-0.4-21c0-4.8,2.5-7.5,7.2-7.9c5.3-0.4,10.6-0.6,16-0.7
			c7.7-0.2,15.3-0.1,23-0.4c5.3-0.3,6.8-2.9,5.5-8c-1.4-5.8-5.9-6.9-10.6-7.1c-9.7-0.4-19.3-0.2-29-0.5c-3.8-0.1-7.7-1-11.4-1.5
			c-0.4-2.3-0.9-3.6-0.8-4.9c0.3-3.6,0.8-7.3,1.2-10.9c1.2-9.7,2.2-10.7,11.8-10.8c17.7-0.2,35.3,0,53-0.2c9.7-0.1,19.3-0.4,29-1
			c6.9-0.5,8.7-3,7.8-9.7c-0.3-2.2-1.3-4.4-2-6.5C2188,820.1,2147.5,820.1,2105.8,820.1z M-335.7,920.4c-30.7-0.4-60.9-0.9-91.2-1.3
			c-2.7,0-5.3,0-8,0c-3.9-0.1-6.3-1.8-6.4-6c-0.2-7.7-0.3-15.3-0.4-23c-0.1-4.4,2-7,6.3-7.4c4.6-0.5,9.3-0.8,13.9-1
			c8.7-0.3,17.3-0.1,26-0.7c6-0.4,7.2-3.1,5.3-8.8c-1.9-5.6-6.7-6.1-11.2-6.3c-8.3-0.4-16.6-0.1-25-0.2
			c-16.1-0.3-16.2-0.4-14.3-16.4c1.3-10.8,2.1-11.7,12.9-11.9c18.3-0.2,36.6,0,54.9-0.2c9-0.1,18-0.5,26.9-1.3c6-0.5,7.9-3.5,7-9.5
			c-0.4-2.2-1.3-4.3-1.8-5.9c-20.9,0-41.1,0-61.4,0c-20.5,0-41,0-62.4,0c0.4,3.9,0.8,7.4,1.1,11c0.5,7.3,2,14.7,1,21.9
			c-2.9,22.8,1.9,45.8-2.2,68.7c-2,11.6,2.2,14.9,13.9,14.8c15-0.1,29.9-0.2,44.9-0.2c21.6,0.1,43.3,0.4,64.9,0.5c8,0,10-2.7,8-10.6
			C-333.5,924.6-334.7,922.6-335.7,920.4z M1189.2,822c0.2,4.3,0.2,7.3,0.5,10.2c2.2,20.3,2.5,40.5,0.6,60.8
			c-1.5,16.2-9.1,27.6-22.6,30.6c-17.6,3.9-35.1,2.9-52-3.9c-10.6-4.2-16.5-11.1-16.8-23.2c-0.5-20.3-1.9-40.6-3.4-60.8
			c-1-14.1-4.7-16.6-18.7-13.8c-0.6,0.1-1.1,0.7-2,1.2c0,21.1-0.5,42.4,0.2,63.6c0.3,7.8,2.6,15.8,5,23.3
			c5.9,18.9,19.7,29.4,38.8,31.3c20.2,2.1,40.6,2,60.6-3.1c17.5-4.5,28.9-16.5,29.6-34.6c0.9-22.9,0-45.9-0.6-68.9
			c-0.1-4.4-2.1-8.8-3.4-13.7C1199.4,821.4,1194.9,821.6,1189.2,822z M-2020.7,933.2c4.7,2.1,7.8,4.2,11.2,4.8
			c6.6,1.3,12.5-0.5,16.6-6.4c6.1-8.7,12.4-17.3,18.6-25.9c2.2-3,4.4-5.5,8.8-5.4c16.6,0.3,33.2,0.2,49.9,0.3c9,0,15,4.6,18.7,12.5
			c2.2,4.8,4.3,9.7,6.7,14.5c5.7,11.2,12,13.3,25.4,8.1c-1.1-2.6-1.9-5.3-3.2-7.8c-17-30.5-34-61-51.2-91.4
			c-2.6-4.6-5.5-9.1-8.9-13.2c-5.7-6.9-18.1-5.3-22.4,2.2c-6,10.3-12.2,20.6-18.8,30.5C-1986,881.3-2002.9,906.4-2020.7,933.2z
			 M-985.8,820.9c2,4,3.4,7.3,5.3,10.4c16.1,27.2,32.2,54.4,48.4,81.6c3.8,6.3,7.5,12.6,11.7,18.6c7.5,10.4,20.3,9.6,26.5-1.4
			c4.7-8.4,9.3-16.9,14.3-25.2c14.7-24.2,29.4-48.4,44.4-72.4c3.1-5,4.6-9.4,0.5-14.5c-6.1,0.6-12-1.8-16.7,5.5
			c-17,26.6-34.9,52.8-52.5,79.1c-1.3,1.9-3,3.4-5.2,5.9c-2.8-3.4-5.7-6.1-7.7-9.4c-13.6-22.1-27.3-44.2-40.6-66.5
			C-965.4,819.1-968,817.7-985.8,820.9z M687,818.1c-10,0-19.9,0.2-29.9,0c-28-0.6-56-1.5-83.9-2.1c-10.8-0.2-11.3,0.4-11.1,11.2
			c0,1.3,0.4,2.5,0.8,4.7c4.2,0.7,8.3,1.9,12.4,2.1c11.3,0.6,22.6,0.9,33.9,1c5.5,0,7.8,2.7,8.3,7.7c0.2,2.3,0.4,4.7,0.5,7
			c0.2,18.7,0.4,37.3,0.5,56c0.1,9.9,0,19.9,0,31.3c4.6,0.8,9.3,2.2,14,2.3c7,0.2,8.1-1.4,8.2-8.2c0.2-12,0.6-23.9,0.7-35.9
			c0.2-16.3,0.2-32.7,0.5-49c0.1-9.6,1.4-10.9,11-11c9.3-0.1,18.7,0.1,28,0c11.1-0.1,13-3.2,8.3-13.5
			C688.7,820.5,687.8,819.4,687,818.1z"/>
		<path class="st1" d="M909.6,619.7c0.9,5.5,1.9,10.9,2.8,16.4c-0.2,2.6-0.6,5.2-0.6,7.9c-0.1,16.6,0,33.2,0,49.8
			c0,3.5-0.4,7.1-0.6,11.6c-21.1,1.3-40.1-3.3-58.8-10.2c-4.3-2.2-8.5-4.4-12.8-6.7c-7.6-7.7-15.2-15.5-23.2-23.6
			c-1.2,0.4-2.8,0.9-4.2,1.6c-31.6,16.1-64.8,18.6-98.7,9.8c-11.5-3-22.3-8.1-33.5-12.2c0,0,0.2,0.1,0.2,0.1
			c-0.9-0.6-1.7-1.3-2.6-1.9c-26.7-17.5-48.4-39.3-61.2-69.2c-8-18.7-11.5-38.2-11.5-58.3c-0.1-111.2,0.2-222.5-0.1-333.7
			c-0.2-73.2,55.9-130.6,116.7-141.6c38.7-7,75.8-2.1,109,20.5c9.6,6.5,17.9,14.8,26.7,22.3c0,0,0.2,0.6,0.2,0.6l0.7,0.2
			c0.5,0.5,0.9,0.9,1.5,1.4c0.8,0.7,1.7,1.3,2.5,2c0,0-0.6,0-0.6,0c0.7,1.4,1.2,3.1,2.2,4.3c22.7,27.3,32.7,58.9,32.6,94.2
			c-0.1,107.9-0.1,215.9-0.1,323.8c0,7-0.3,14-0.9,20.9c-1.6,17.8-7,34.5-15,50.4c-3.4,6.7-3.3,7.1,2.5,11.5
			C890.6,617.5,899.5,620.5,909.6,619.7z M728.7,582.9c3.6,1.5,7.2,3.9,10.9,4.3c34.8,3.9,60.9-21.4,60.8-53
			c-0.2-102.8,0-205.6,0.1-308.5c0-9,0-18-0.2-27c-0.2-9.2-3.3-17.5-8.7-25c-16.5-27.4-57.9-33.4-82.6-7.1
			c-10.7,11.4-13.7,25.3-13.7,40.5c0.2,107.9,0.1,215.9,0.1,323.8c0,4.3,0.1,8.7,0.6,13C698.2,562.1,712.6,579.2,728.7,582.9z"/>
		<path class="st1" d="M-126.9,676.1c-5.7-0.1-11.3-0.3-17-0.4c-8.7-0.1-9.5-0.9-9.8-9.9c-0.1-2.3,0-4.7,0-7
			c0-194.6-0.1-389.3-0.1-583.9c0-1,0-2,0-3c0.3-9.2,1.1-10.2,10.6-10.2c46,0,92,0.2,138,0.4c24.9,0.1,48.3,6.5,69.3,19.5
			c11.2,6.9,20.6,16.7,30.8,25.2c1.1,0.9,2.1,1.8,3.2,2.6c0,0,0.1,0.2,0.1,0.2c1.3,1.4,2.6,2.8,3.8,4.1c0,0-0.1-0.1-0.1-0.1
			c1,1.7,1.8,3.5,2.9,5c8.5,11.2,15.3,23.3,20.6,36.3c7.8,19.2,9.7,39.3,9.7,59.7c0.1,104.9,0.1,209.8,0,314.6
			c0,24-4.7,47.2-16.6,68.1c-27.8,48.6-68.6,77-125.9,78.1c-33,0.6-65.9,0.1-98.9,0.1C-113,675.6-119.9,675.9-126.9,676.1z
			 M36.3,179c-9.7-15.1-23.6-23-41.6-23.4c-15-0.3-30-0.2-45-0.2c-3.5,0-7.1,0.5-10.3,0.8c-2.2,13.9-1.5,418.3,0.6,425.6
			c8.5,0,17.2,0,25.8,0c10,0.1,20,0.1,30,0.4c21.6,0.7,47.8-21.6,49.2-45.5c0.4-6.6,0.7-13.3,0.7-20c0-96.3,0-192.6,0-288.9
			c0-6.7,0.2-13.3-0.1-20C45.2,197.4,43.7,187.2,36.3,179z"/>
		<path class="st1" d="M-451.6,661c-26.4-15.6-46.9-37-60.6-64.5c-9.7-19.4-13.5-40.2-13.6-61.8c0-29-0.1-57.9-0.1-86.9
			c0-120.5,0-241-0.1-361.5c0-6.6,0-13.2,0-20.6c3.5-0.4,6-1,8.5-1.1c24.3-0.1,48.6-0.2,72.9-0.3c7.4,0,8.3,1,8.8,8.7
			c0.3,4.3,0.9,8.6,1.4,12.8c-0.5,3.5-1.4,7-1.4,10.6c-0.1,143.5-0.1,287-0.1,430.5c0,2.3-0.1,4.7,0.1,7c1.3,22,11.8,37.6,32,46.6
			c18.1,7.3,35.7,5.5,51.4-5.3c12.7-8.8,20.5-21.7,21.7-37.8c0.4-5,0.3-10,0.3-15c0-149,0.1-297.9,0.1-446.9c0-3.2,0.3-6.5,0.5-10.4
			c31.9,0,63,0,94.9,0c0.4,7.4,0.7,14.3,1.1,21.2c-0.2,3.6-0.6,7.3-0.6,10.9c0,62.9,0,125.9,0,188.8c0,83.9,0.2,167.8-0.2,251.7
			c-0.1,26.1-7,50.8-21.4,72.8c-37.9,57.9-103.4,79.7-167.6,61.5c-8.2-2.3-16.2-5.6-24.3-8.4c0,0,0.1,0.1,0.1,0.1
			C-449.1,662.8-450.3,661.9-451.6,661z"/>
		<path class="st1" d="M1031.1,648.9c-12.5-10.6-23.7-22.1-33.2-35.6c-13-18.5-19.6-39.2-22.5-61.2c-1-7.6-1-15.3-1-22.9
			c-0.1-147-0.1-294-0.1-441c0-5,0.1-10,0.2-15c0.2-7.8,0.6-8.4,8.7-8.5c21-0.1,42-0.1,63-0.1c5.6,0,11.1,0,17.3,0
			c0.8,8,1.5,14.9,2.1,21.7c-0.4,3.6-1.3,7.2-1.3,10.7c-0.1,143.8-0.1,287.7,0,431.5c0,5.6,0.3,11.4,1.7,16.8
			c4.5,16.6,13.8,29.2,31,34.5c26,13.1,58.6-1.8,68-26.5c2.9-7.6,4.7-15.1,4.7-23.2c-0.1-53.6,0.1-107.2,0.1-160.8
			c0.1-97.6,0.1-195.1,0.1-292.7c0-3.6,0-7.1,0-11.4c32.3,0,63.4,0,95.3,0c0.4,7.5,0.7,14.4,1,21.2c-0.2,4.6-0.5,9.3-0.6,13.9
			c0,80,0,160,0,239.9c0,65,0.1,130-0.1,194.9c-0.1,22.3-4.4,43.8-15,63.6c-32.5,61.3-96.7,90.7-167.2,75.5
			c-13.2-2.9-24.7-9.4-36.9-14.3c-1.5-1.1-3-2.2-4.6-3.3c0-0.4-0.3-0.6-0.8-0.5c-3.5-2.6-6.9-5.1-10.3-7.7
			C1031,648.6,1031.1,648.9,1031.1,648.9z"/>
		<path class="st1" d="M-1786.2,676.2c-5.3-0.2-10.6-0.4-15.9-0.6c-7-0.3-8.2-1.2-9.1-7.7c-4.4-29.2-8.5-58.3-12.9-87.5
			c-1.2-8.2-3.1-16.2-4.7-24.4c-0.8-7.2-1.5-14.3-2.3-20.9c-2.3-0.8-3.2-1.4-4.1-1.4c-28.7-0.1-57.3-0.2-86-0.3
			c-4.2,0-6,2.1-6.6,5.9c-1.3,8.6-2.7,17.1-4,25.7c-5.5,34.9-11,69.7-16.4,104.6c-0.6,4-2.4,6-6.4,6c-3.7,0-7.3,0-11,0.1
			c-16.6,0.2-33.3,0.4-49.9,0.7c-9.5-0.4-19-0.8-30-1.3c34.6-204.1,69-406.9,103.6-610.3c5.7,0,10.6,0,15.5,0c34,0,68,0,101.9-0.1
			c9.6,0,9.6,0,11.4,9.7c0.8,4.3,1.5,8.5,2.2,12.8c0.1,2.3-0.1,4.7,0.3,6.9c3.3,19,6.9,37.9,10.1,57c6.8,41,13.4,82,20.2,123
			c9.6,57.4,19.4,114.8,29,172.2c12.3,73.5,24.6,146.9,36.9,220.4c0.4,2.5,0.4,5.1,0.7,9c-4.8,0-8.7,0-12.6,0
			C-1746.3,675.8-1766.3,676-1786.2,676.2z M-1863.9,318.1c-0.1-3,0.2-6-0.3-9c-3.8-27.4-7.6-54.7-11.5-82.1
			c-0.7-5.2-1.6-10.5-2.4-15.7c-0.7,0-1.4,0.1-2.1,0.1c-10.9,76.7-21.7,153.3-32.8,231.2c11.1,0.3,21,1.2,30.8-0.7
			c15,2.1,29.4,1.5,36.5-1.8c-0.2-1.8-0.2-3.8-0.5-5.7c-4.4-31.3-8.7-62.7-13.3-94C-1860.4,332.9-1862.3,325.5-1863.9,318.1z"/>
		<path class="st1" d="M336.2,321.2c3.9,0.3,7.9,0.9,11.8,0.9c23.9,0.1,47.7,0.1,71.6,0.1c3.6,0,7.1,0.3,11.5,0.5
			c0.6,7.5,1.1,14.3,1.6,21.1c-0.3,3.3-0.8,6.6-0.8,9.9c-0.1,16.7,0,33.3,0,50c0,3.6-0.4,7.1-0.7,11.9c-41.2,0-81.7,0-122.5,0
			c0,56.1,0,110.8,0,165.9c2.9,0.3,5.2,0.8,7.5,0.8c6.6-0.1,13.3-0.4,19.9-0.6c4,0.2,8,0.5,11.9,0.5c39.6,0,79.2,0,118.8,0.1
			c3.2,0,6.5,0,10.2,0c0.6,7.9,1,14.8,1.5,21.6c-0.3,3.6-0.8,7.3-0.8,10.9c-0.1,16.7,0,33.3-0.1,50c0,3.2-0.4,6.5-0.6,10.8
			c-4.7,0-8.6,0-12.5,0c-66.3,0-132.7,0-199,0c-7.6,0-15.3,0.3-22.9,0.5c-6.3-0.1-12.6-0.2-18.9-0.3c-6.4-0.2-7.4-1.2-7.8-7.6
			c-0.2-3.3-0.1-6.7-0.1-10c0-194.5,0-388.9-0.1-583.4c0-2.3,0-4.7,0.2-7c0.3-3.5,2.3-5.4,5.8-5.6c3.3-0.2,6.7-0.3,10-0.3
			c75.9,0,151.9,0,227.8,0c5.6,0,11.2,0.5,17.4,0.7c0.5,7.6,1,14.4,1.5,21.3c-0.4,23.5-0.8,47-1.2,71.5c-19.6,0-38.2,0-56.8,0
			c-18.7,0-37.3-0.1-56,0c-18.5,0.1-37-0.3-55.3,0.3c-2.1,13-1.6,158.9,0.7,166.8C318.5,322,327.4,321.6,336.2,321.2z"/>
		<path class="st1" d="M1373.4,676c-8.6-0.3-17.1-0.6-26.3-0.9c0-204.5,0-407.9,0-611.1c9.3-2.8,249.1-3.2,260.7-0.4
			c0.3,4.9,0.7,10.1,1,15.3c0,0,0-0.3,0-0.3c0.1,1.7,0.1,3.4,0.2,5.1c-0.3,3.6-0.8,7.3-0.8,10.9c-0.1,16.3,0,32.7-0.1,49
			c0,3.6-0.3,7.1-0.6,11.7c-19.4,0-38,0-56.6,0c-18.7,0-37.3-0.1-56,0c-18.5,0.1-37-0.6-55.3,0.5c-2.4,14.7-1.6,158.9,0.7,165.6
			c8.6,0,17.2,0,25.8,0c24.6,0.2,49.2,0.5,73.7,0.7c4.7,0,9.3,0,14,0c8.8,0.1,8.9,0.4,8.8,9c0,4.3,0.6,8.6,1,12.8
			c-0.4,3.2-1.2,6.5-1.2,9.7c-0.1,17.6,0,35.3-0.1,52.9c0,8.1-0.6,8.6-8.3,8.9c-2.3,0.1-4.7,0-7,0c-32.3,0-64.6,0-96.9,0
			c-3.5,0-7.1,0.3-11.2,0.5c0,55.7,0,110.4,0,165.7c9.4,1.2,18.2,1.3,27.1-0.2c12,0.2,24,0.5,35.9,0.5c32,0,63.9-0.1,95.9-0.1
			c10.1,0,10.1,0.2,10.4,9.9c0.1,4,0.6,7.9,0.8,11.9c-0.4,3.6-1,7.2-1.1,10.8c-0.1,16.6,0,33.3-0.1,49.9c0,3.2-0.3,6.5-0.6,11
			c-4.9,0-9.1,0-13.4,0c-69.3,0-138.5,0-207.8,0C1382,675.6,1377.7,675.9,1373.4,676z"/>
		<path class="st1" d="M1807.7,592.3c20.1,9.8,47.1-3,59.4-16.3c21.5-23,19.5-69.6,4-94.9c-10.3-16.8-23.2-31.4-37.6-44.9
			c-32.9-31-65.6-62.3-96.9-94.9c-17-17.7-31.2-38.1-40.5-61.4c-12.5-31.3-16.4-63.5-12.4-97c2.3-19.1,6.8-37.4,15.8-54.3
			c21.9-41.5,56.3-65.3,103.2-70.7c26.5-3,52.5-1,77.8,7.6c18.5,6.3,35,15.8,48.6,30c2.3,2.4,4.9,4.5,7.3,6.8c0.6,0.5,1.2,1,1.8,1.5
			c0,0-0.1-0.1-0.1-0.1c0.5,1.2,0.7,2.7,1.4,3.7c14.6,19.1,23.6,40.7,28.7,64c1.7,8,3.2,16,3.1,24.7c-5.8,1.2-10.6,2.1-15.5,3.1
			c-16.6,3.2-33.2,6.4-49.8,9.5c-4.6,0.7-9.2,1.4-13.8,2c-7.4,1.1-8,0-9.9-7.3c-2.8-10.8-6.4-21.5-9.9-32.1
			c-0.7-2.1-2.5-3.8-3.9-5.7c-11-27.3-59.5-34.2-78.3-5c-4.1,6.3-7.4,13.5-9.4,20.8c-6.1,21.8-4.6,43.5,3.5,64.7
			c8.7,22.4,22.3,41.6,39.3,58.4c7.7,7.7,16.3,14.4,24.5,21.5c0,0-0.2-0.2-0.2-0.2c0.8,0.7,1.5,1.3,2.3,2c0,0-0.2-0.2-0.2-0.2
			c1.1,1,2.3,1.9,3.4,2.9c0,0-0.1-0.1-0.1-0.1c1,0.9,2.1,1.8,3.1,2.7c0,0,0.3,0.2,0.3,0.2c0.4,0.5,0.9,1,1.3,1.5
			c10.9,9.2,21.7,18.4,32.6,27.6c1.2,1.3,2.4,2.6,3.6,3.9c0.5,0.5,0.9,1,1.4,1.5c0.8,0.7,1.6,1.4,2.4,2.1c0,0-0.2-0.2-0.2-0.2
			c1.4,1.4,2.8,2.8,4.2,4.1c0,0-0.2-0.1-0.2-0.1c1.4,1.8,2.7,3.7,4.1,5.5c10.8,13.5,22.3,26.5,32.3,40.5
			c15.5,21.8,26.9,46,33.6,71.9c8.1,31.2,5.1,62.1-4.3,92.5c-7.4,23.9-19.9,45.2-38.1,62.3c-23.6,22.1-52.6,31.7-84.3,34
			c-32.1,2.3-63-2-91.9-17c-0.4-0.3-0.8-0.6-1.2-0.9c0,0-0.2-0.1-0.2-0.1c-25.4-15-43.6-36.7-56.7-62.6c-9-17.8-14.8-37-18.2-56.7
			c-1.5-8.8-2.9-17.7-3.7-26.6c-0.8-8.5,0.5-9.7,9.3-10.2c19.5-1.3,39.1-2.5,58.6-3.7c5.9-0.4,11.8-0.5,18-0.8
			c2,8.1,3.8,15.4,5.7,22.7c1.7,19.7,9.5,37,21.7,52.2C1792,583.5,1798.6,589.7,1807.7,592.3z"/>
		<path class="st1" d="M2066,158.7c-8.2-0.5-16.5-0.9-24.5-1.4c-2.9-8.5-3.4-81.3-0.7-92.2c94.3,0,188.7,0,283.8,0
			c1.2,7.5,2.4,14.9,3.5,22.2c-0.6,3.4-1.7,6.9-1.7,10.4c-0.2,15.7,0,31.3-0.1,47c0,4.2-0.5,8.4-0.8,13.6c-32.3,0-63.5,0-95.6,0
			c-0.3,5.6-0.8,10.1-0.8,14.7c0,98.3,0,196.5,0,294.8c0,65.3,0,130.6,0,195.8c0,3.8-0.3,7.6-0.4,12c-15.6,0-29.9-0.1-44.2,0
			c-7,0.1-13.9,0.6-20.8,1c-6.6-0.2-13.3-0.7-19.9-0.6c-5,0.1-7.6-1.7-7.4-6.9c0.1-2.3,0-4.7,0-7c0-154.5,0-309,0-463.5
			c0-4,0.4-8,0.2-12c-0.3-5.6-2.3-8-7.9-8.1c-16-0.3-32-0.3-47.9-0.1c-2,0-4.1,1.5-6,2.6c-0.2,0.1,0.6,2,0.9,3
			c1-0.5,1.9-1.1,2.8-1.7c16.5,0.1,33,0.2,49.6,0.3c4.2,0,8.3-0.7,8.5-6.1c0.3-5.8,0.1-11.7,0.1-18.7c-6.9,0-12.4-0.1-18,0
			C2101.1,158.2,2083.6,158.5,2066,158.7z"/>
		<path class="st1" d="M-1288.9,676.1c-6-0.2-12-0.3-17.9-0.5c-7.1-0.3-8.1-1.3-8.5-8.1c-0.1-2.3,0-4.7,0-7c0-153.2,0-306.4,0-459.5
			c0-7-0.4-14-0.6-20.9c0-6.9,0-13.7,0-22.1c-7.4,0-13.9-0.1-20.4,0c-16.6,0.2-33.2,0.5-49.7,0.8c-6.3-0.3-12.6-0.5-19-0.7
			c-7.4-0.3-8.7-1.4-8.6-8.8c0.2-21.3,0.5-42.6,0.7-64c0.1-6.3,0-12.6,0-18.3c0.6-0.8,0.8-1,1.1-1.3c0.2-0.2,0.6-0.5,0.8-0.5
			c93.6-0.2,187.2-0.4,280.9-0.6c0.9,0,1.9,0.6,3.6,1.1c0.5,7,1.1,14.2,1.7,21.4c-0.4,2.9-1.2,5.7-1.2,8.6c-0.1,17.7,0,35.3-0.1,53
			c0,2.8-0.4,5.7-0.7,9.3c-11.6,0-22.2,0-32.8,0c-10.3,0-20.7-0.1-31,0c-10.5,0.1-21-0.5-32.5,0.6c0,172.7,0,344.1,0,516.5
			c-5,0.2-8.9,0.5-12.8,0.5C-1253.6,675.8-1271.2,675.9-1288.9,676.1z"/>
		<path class="st1" d="M-762.6,675.9c-8.3,0-16.6,0-25.2,0c-0.8-3.2-1.6-5.3-1.8-7.4c-0.3-3.3-0.1-6.7-0.1-10
			c0-153.8,0-307.5,0-461.3c0-5.6-0.4-11.3-0.5-16.9c0-7.1,0-14.2,0-22.4c-4.6,0-8.1,0-11.7,0c-19.5,0.2-39,0.4-58.4,0.6
			c-8.3-0.4-16.5-0.7-25.3-1.1c-0.6-2.4-1.5-4.6-1.5-6.8c-0.2-25.7-0.3-51.3-0.2-77c0-8.3,1.1-9,9.3-9c89.3,0,178.6,0,267.9,0
			c2.6,0,5.2,0,9,0c0.7,7.7,1.4,14.8,2.1,21.9c-0.4,4.3-1.1,8.6-1.1,12.9c-0.1,15.6,0,31.3-0.1,46.9c0,3.6-0.4,7.1-0.6,11.6
			c-11.5,0-22.1,0-32.7,0c-10.3,0-20.6-0.1-31,0c-10.5,0.2-21.1-0.8-32.8,0.8c0,58,0,115.2,0,172.3c0,57.3,0,114.5,0,171.8
			c0,57.1,0.1,114.3,0,172.4C-720.2,675.5-741.4,675.7-762.6,675.9z"/>
		<path class="st1" d="M-1607.8,676c-8.5-0.3-17.1-0.6-26.2-0.9c0-203.4,0-405.8,0-608.2c6.4-2.5,70.9-3.6,90.4-1.4
			c0.6,6.9,1.2,14,1.9,21.1c-0.3,1.9-0.8,3.9-0.8,5.8c0,159.5,0,319,0,478.4c0,3.5,0.4,7,0.7,10.7c9.6,0,18.2,0,26.8,0
			c12.7,0.2,25.3,0.6,38,0.6c28,0.1,56-0.1,84,0c8.8,0,8.9,0.3,9.1,8.9c0.1,4.3,0.3,8.6,0.5,13c-0.3,23.5-0.6,46.9-0.9,71.6
			c-4.9,0-8.9,0-12.8,0c-65.5,0-131.1,0-196.6,0C-1598.5,675.6-1603.1,675.8-1607.8,676z"/>
		<path class="st2" d="M159.8,759.7c721.3,0,1442.6,0,2163.9,0c6,0,12-0.2,18,0.1c5.1,0.3,7.2,2.7,7.3,7.6c0.2,4.7-1.9,7.4-6.9,8.2
			c-2.3,0.4-4.7,0.2-7,0.2c-13.7,0-27.3,0-41,0c-1435.2,0-2870.5,0-4305.7,0c-3.3,0-6.7,0.2-10-0.1c-6.6-0.4-8.7-2.6-8.7-8.4
			c0.1-5.4,1.8-7.1,8.2-7.6c2.3-0.2,4.7-0.1,7-0.1C-1290.1,759.7-565.2,759.7,159.8,759.7C159.8,759.7,159.8,759.7,159.8,759.7z"/>
		<path class="st2" d="M160,999.7c720.6,0,1441.2,0,2161.9,0c6,0,12-0.1,18,0.1c6.6,0.2,9,2.4,9.1,7.9c0,5.3-2.4,7.6-9.1,8.1
			c-3.3,0.2-6.7,0.1-10,0.1c-1036.9,0-2073.9,0-3110.8,0c-410.3,0-820.6,0-1230.9,0c-3.7,0-7.4,0.2-11-0.2c-5.7-0.6-7.5-3-7.4-8.5
			c0-5.1,2.8-7.2,7.5-7.3c2.3-0.1,4.7-0.1,7-0.1C-1290.5,999.7-565.3,999.7,160,999.7C160,999.7,160,999.7,160,999.7z"/>
		<path class="st1" d="M-1025.4,676.1c-6.6-0.2-13.3-0.4-19.9-0.5c-4-0.1-6.2-1.9-6.2-6c0-2.3-0.1-4.7-0.1-7
			c0-193.5,0-386.9,0-580.4c0-3,0-6,0.1-9c0.2-7.8,1.1-8.8,8.6-8.8c25.6,0,51.3,0.2,76.9,0.3c1.6,0,3.2,0.3,5.8,0.5
			c0.4,5.4,0.7,10.6,1,15.7c0,0,0-0.3,0-0.3c0.2,1.9,0.4,3.9,0.6,5.8c-0.3,4.3-1,8.5-1,12.8c0,186.4,0,372.8,0,559.2
			c0,3.3,0.1,6.7-0.1,10c-0.1,2.2-0.8,4.3-1.4,7.2c-4.8,0-9.1,0-13.4,0C-991.5,675.7-1008.5,675.9-1025.4,676.1z"/>
		<path class="st3" d="M1046.7,660c12.2,5,23.7,11.5,36.9,14.3c70.5,15.2,134.7-14.2,167.2-75.5c10.5-19.8,14.9-41.3,15-63.6
			c0.2-65,0.1-130,0.1-194.9c0-80,0-160,0-239.9c0-4.7,0.4-9.3,0.6-13.9c6,0.1,12,0.1,18,0.3c8,0.3,8.5,0.9,8.8,8.6
			c0.1,3.3,0.1,6.7,0.1,10c0,147.7,0,295.3,0,443c0,19.1-1.3,37.9-7.7,56.1c-8.6,24.5-23,44.9-42.8,61.5
			c-14.6,12.3-30.5,22.7-49.2,27.8c-9,2.5-18,5.3-27.2,6.2c-32.1,3-63.3-0.8-91.7-17.3c-8.6-5-16.5-11.2-24.5-17.2
			C1048.6,664.3,1047.8,661.9,1046.7,660z"/>
		<path class="st3" d="M-1288.9,676.1c17.6-0.2,35.3-0.3,52.9-0.5c3.9,0,7.8-0.3,12.8-0.5c0-172.4,0-343.9,0-516.5
			c11.5-1.1,22-0.5,32.5-0.6c10.3-0.1,20.7,0,31,0c10.6,0,21.2,0,32.8,0c0.3-3.6,0.7-6.5,0.7-9.3c0.1-17.7,0-35.3,0.1-53
			c0-2.9,0.8-5.7,1.2-8.6c6-0.1,12-0.6,18-0.3c6,0.2,8.1,2.1,8.1,7.8c0.1,27.6-0.1,55.3-0.2,82.9c0,0.6-0.6,1.1-1.5,2.8
			c-30.8,0-62.3,0-94.7,0c-0.3,5.9-0.8,10.8-0.8,15.7c0,83.6,0,167.3,0,250.9c0,80,0.1,160,0.2,239.9c0,9.2-1.3,10.8-10.1,10.9
			c-24.7,0.1-49.3,0.1-74,0.1c-6.9,0-8.8-2-9-8.8C-1288.9,684.7-1288.8,680.4-1288.9,676.1z"/>
		<path class="st3" d="M-126.9,676.1c7-0.2,13.9-0.5,20.9-0.5c33-0.1,65.9,0.5,98.9-0.1c57.3-1,98.1-29.4,125.9-78.1
			c12-21,16.6-44.1,16.6-68.1c0.1-104.9,0.1-209.8,0-314.6c0-20.4-1.9-40.5-9.7-59.7c-5.3-13-12.2-25.1-20.6-36.3
			c-1.2-1.5-2-3.3-2.9-5c7.4,0.6,11.4,6.6,15.9,11c12.9,12.2,23.1,26.6,30.7,42.7c7.8,16.4,13.1,33.6,13.2,51.8
			c0.4,54.6,0.4,109.3,0.4,163.9c0.1,55-0.2,109.9,0.1,164.9c0.1,25.4-4.2,49.8-16.5,72.2c-11.5,20.8-26.8,38.3-46.6,52.4
			c-18.8,13.3-39.2,21-61.6,24c-8.5,1.1-17.3,1.2-25.9,1.3c-42,0.1-84,0-125.9-0.1c-2.3,0-4.7,0-7-0.1c-4.1-0.2-6-2.4-6-6.4
			C-127.1,686.1-127,681.1-126.9,676.1z"/>
		<path class="st3" d="M-762.6,675.9c21.2-0.2,42.4-0.4,65.1-0.6c0.1-58.1,0-115.3,0-172.4c0-57.3,0-114.5,0-171.8
			c0-57.2,0-114.4,0-172.3c11.7-1.6,22.2-0.7,32.8-0.8c10.3-0.2,20.6,0,31,0c10.6,0,21.2,0,32.7,0c0.3-4.5,0.6-8,0.6-11.6
			c0.1-15.6-0.1-31.3,0.1-46.9c0-4.3,0.7-8.6,1.1-12.9c6,0.2,12,0.2,18,0.6c6.3,0.3,7.8,1.5,7.8,7.8c0.1,25.7,0.1,51.3-0.2,77
			c-0.1,7.3-1.3,8.2-9.2,8.3c-24,0.1-48,0-72-0.1c-16.8-0.1-15.4,0-15.4,15c0.1,162.9,0.1,325.8,0.1,488.8c0,1.3,0,2.7-0.1,4
			c-0.4,9.4-0.9,9.9-10.7,10c-24,0.1-48,0.2-72,0.2c-8.3,0-9.2-0.8-9.6-9C-762.6,684.6-762.5,680.2-762.6,675.9z"/>
		<path class="st3" d="M-447.9,663.7c8.1,2.8,16.1,6.1,24.3,8.4c64.1,18.2,129.7-3.6,167.6-61.5c14.4-22,21.3-46.7,21.4-72.8
			c0.4-83.9,0.2-167.8,0.2-251.7c0-62.9,0-125.9,0-188.8c0-3.6,0.4-7.3,0.6-10.9c8.2,0.4,16.4,0.8,25.5,1.2c0.3,3.6,0.7,6.8,0.7,10
			c0,150.9-0.1,301.7,0,452.6c0,25-3.2,49.2-14.8,71.6c-11.1,21.3-26.9,38.4-46.4,52.5c-14.3,10.3-29.5,18.3-46.6,21.9
			c-38.5,8.1-76.1,6.5-111-14.5c-4.6-2.7-9.5-5.1-13.6-8.4C-443,670.6-445.3,666.9-447.9,663.7z"/>
		<path class="st3" d="M2163.7,676.6c6.9-0.3,13.9-0.9,20.8-1c14.3-0.2,28.6,0,44.2,0c0.2-4.4,0.4-8.2,0.4-12
			c0-65.3,0-130.6,0-195.8c0-98.3,0-196.5,0-294.8c0-4.6,0.5-9.1,0.8-14.7c32.1,0,63.3,0,95.6,0c0.3-5.2,0.8-9.4,0.8-13.6
			c0.1-15.7-0.1-31.3,0.1-47c0-3.5,1.1-6.9,1.7-10.4c6.3-0.1,12.6-0.3,18.9-0.4c0,0-0.1-0.2-0.1-0.2c5.7,0.8,6.4,5,6.4,9.6
			c0,10,0,20,0.1,30c0,14.3,0.1,28.7,0,43c-0.1,10.2-0.7,10.8-10.8,10.8c-24.3,0-48.7-0.1-73-0.1c-2.7,0-5.6-0.5-7.9,0.3
			c-2.1,0.8-4.4,2.9-5,4.9c-0.9,2.7-0.4,5.9-0.4,8.9c0,163,0,325.9,0,488.9c0,4.2,0,8.5,0,13.6c-4.9,0.4-8.8,1-12.7,1
			c-23.3,0.1-46.7,0.2-70,0.1c-3.4,0-6.9-1.7-10.3-2.6c0,0-0.1,0-0.1,0C2163.4,689,2163.5,682.8,2163.7,676.6z"/>
		<path class="st3" d="M-1025.4,676.1c17-0.2,33.9-0.3,50.9-0.4c4.3,0,8.6,0,13.4,0c0.6-2.8,1.3-5,1.4-7.2c0.2-3.3,0.1-6.7,0.1-10
			c0-186.4,0-372.8,0-559.2c0-4.3,0.6-8.6,1-12.8c6.3,0.1,12.7,0.2,19,0.1c4.9,0,7.5,2.1,7.4,7.2c0,1.7,0,3.3,0,5
			c0,196,0,392,0.1,587.9c0,10.4-0.5,11.1-10.4,11.1c-24,0-48,0-72-0.2c-9.1-0.1-9.9-0.9-10.5-10.5
			C-1025.3,683.4-1025.3,679.7-1025.4,676.1z"/>
		<path class="st3" d="M-1786.2,676.2c20-0.2,39.9-0.4,59.9-0.6c3.9,0,7.8,0,12.6,0c-0.3-3.9-0.3-6.5-0.7-9
			c-12.3-73.5-24.6-147-36.9-220.4c-9.6-57.4-19.4-114.8-29-172.2c-6.8-41-13.4-82-20.2-123c-3.2-19-6.8-38-10.1-57
			c-0.4-2.2-0.2-4.6-0.3-6.9c5-0.2,10-0.6,15-0.4c7.2,0.2,8.6,1.6,9.7,8.6c2.5,15.1,4.9,30.2,7.4,45.3
			c7.1,42.7,14.4,85.4,21.5,128.1c9.2,54.8,18.2,109.7,27.4,164.5c8.9,53.5,18,107,27,160.5c5.3,31.5,10.5,63,15.7,94.6
			c1.4,8.2,0.4,9.6-7.8,9.6c-26.7,0.1-53.3,0.1-80,0c-7.2,0-7.5-0.4-9-7.8C-1785,685.4-1785.5,680.8-1786.2,676.2z"/>
		<path class="st3" d="M909.6,619.7c-10.1,0.9-19.1-2.2-27-8.2c-5.8-4.4-5.9-4.8-2.5-11.5c8-15.9,13.5-32.6,15-50.4
			c0.6-7,0.9-14,0.9-20.9c0.1-107.9,0-215.9,0.1-323.8c0-35.3-10-66.9-32.6-94.2c-1-1.2-1.5-2.9-2.2-4.3c1.8,0.7,3.8,1.1,5.3,2.2
			c23.4,18.3,40.8,41.2,49.6,69.6c4.1,13.2,6.8,27.4,6.9,41.1c0.7,78.9,0.4,157.8,0.4,236.7c0,35.6-0.2,71.3-0.2,106.9
			c0,13.8-2.9,27.1-7.6,40C913.6,608.4,911.6,614,909.6,619.7z"/>
		<path class="st3" d="M-403.8,580.5c-20.3-8.9-30.8-24.6-32-46.6c-0.1-2.3-0.1-4.7-0.1-7c0-143.5,0-287,0.1-430.5
			c0-3.5,0.9-7.1,1.4-10.6c6,0.3,11.9,0.3,17.9,0.8c5.9,0.4,7.7,2.2,8,8c0.3,4,0,8,0,12c0,143.2,0,286.3-0.1,429.5
			C-408.5,551.1-408.1,566-403.8,580.5z"/>
		<path class="st3" d="M1097.1,579.9c-17.2-5.4-26.5-17.9-31-34.5c-1.4-5.4-1.7-11.2-1.7-16.8c-0.1-143.8-0.1-287.7,0-431.5
			c0-3.6,0.8-7.2,1.3-10.7c6,0.1,12,0,18,0.3c6.8,0.3,7.8,1.5,8.4,8.4c0.1,2,0,4,0,6c0,149.2-0.1,298.4,0.2,447.6
			C1092.2,559,1095.4,569.5,1097.1,579.9z"/>
		<path class="st3" d="M-1515.1,581.5c-8.6,0-17.1,0-26.8,0c-0.2-3.6-0.7-7.1-0.7-10.7c0-159.5-0.1-319,0-478.4
			c0-1.9,0.5-3.9,0.8-5.8c6,0,12-0.2,17.9,0.1c6.6,0.3,8.2,2,8.3,8.6c0.1,7.3-0.1,14.6-0.1,22c0,148.8,0,297.6,0,446.4
			C-1515.7,569.6-1515.3,575.5-1515.1,581.5z"/>
		<path class="st3" d="M1753.2,663.4c28.9,15,59.8,19.3,91.9,17c31.7-2.3,60.8-11.8,84.3-34c18.3-17.2,30.8-38.4,38.1-62.3
			c9.4-30.4,12.3-61.3,4.3-92.5c-6.7-26-18.1-50.1-33.6-71.9c-10-14.1-21.5-27-32.3-40.5c-1.4-1.8-2.7-3.6-4.1-5.5
			c2.9,1.5,6.3,2.5,8.5,4.7c12.1,12.3,24.6,24.3,35.7,37.6c10.2,12.2,19.4,25.3,27.8,38.8c29.3,47.1,38.6,97.7,21.4,151
			c-10.3,32-28.4,59.4-58.2,77.3c-19.5,11.7-40.9,17.9-63.4,19.4c-26.8,1.9-53.5,0.9-78.4-10.5c-11.7-5.3-22.7-12.4-33.6-19.3
			C1758.3,670.7,1756,666.7,1753.2,663.4z"/>
		<path class="st3" d="M1466.2,321.5c-8.6,0-17.2,0-25.8,0c-2.3-6.8-3.1-150.9-0.7-165.6c18.2-1,36.8-0.3,55.3-0.5
			c18.7-0.1,37.3,0,56,0c18.6,0,37.1,0,56.6,0c0.2-4.6,0.6-8.1,0.6-11.7c0.1-16.3,0-32.7,0.1-49c0-3.6,0.5-7.3,0.8-10.9
			c6.3,0.1,12.7,0,19,0.3c6.3,0.3,7.5,1.6,7.8,7.8c0.2,3.7-0.1,7.3-0.1,11c0,19.7,0,39.3,0,59c0,15.6,0,15.6-15.2,15.6
			c-46,0-92,0.1-138,0c-19.4-0.1-16.7,1.4-16.7,17.1c0.1,37.7,0,75.3,0,113C1465.8,312.2,1466.1,316.8,1466.2,321.5z"/>
		<path class="st3" d="M336.2,321.2c-8.9,0.4-17.8,0.9-26.3,1.3c-2.3-7.9-2.8-153.8-0.7-166.8c18.2-0.6,36.8-0.2,55.3-0.3
			c18.7-0.1,37.3,0,56,0c18.6,0,37.2,0,56.8,0c0.4-24.5,0.8-48,1.2-71.5c6.3,0.1,12.7,0,19,0.2c6.3,0.3,7.8,1.9,7.7,7.8
			c-0.2,24.6-0.4,49.2-0.7,73.9c0,1.7-0.1,3.3-0.1,5c0,4.4-1.9,6.9-6.6,6.7c-2.3-0.1-4.7,0-7,0c-46.9,0-93.9,0-140.8,0
			c-2.7,0-5.3,0.1-8,0.1c-4.7,0-6.6,2.4-6.5,6.9c0,0.7,0,1.3,0,2c0,42.6-0.1,85.2,0,127.8C335.4,316.5,335.9,318.9,336.2,321.2z"/>
		<path class="st3" d="M1466.2,581.6c-8.9,1.5-17.7,1.3-27.1,0.2c0-55.3,0-110.1,0-165.7c4.1-0.2,7.7-0.5,11.2-0.5
			c32.3,0,64.6,0,96.9,0c2.3,0,4.7,0.1,7,0c7.7-0.3,8.3-0.8,8.3-8.9c0.1-17.6,0-35.3,0.1-52.9c0-3.2,0.8-6.5,1.2-9.7
			c5.7,0,11.3-0.1,17,0.1c7.8,0.3,9.1,1.6,9.1,9.6c0.1,24.6,0,49.3-0.1,73.9c0,9.5-0.6,10.1-10.3,10.1c-33,0.1-65.9,0-98.9,0
			c-14.8,0-14.8,0-14.8,15c0,40,0,79.9,0,119.9C1465.8,575.6,1466,578.6,1466.2,581.6z"/>
		<path class="st2" d="M-1497.8,820.4c3.1-0.5,4.4-0.9,5.7-0.9c26.3,0.5,52.6,0.4,78.9,1.9c25.7,1.5,45.2,14.2,58.9,36.1
			c3.5,5.6,5.4,11.3,5,17.9c-0.3,4.3-0.7,8.7-0.4,13c0.8,11.2-4,20.2-11.1,28c-11.6,12.6-25.6,21.7-43.3,22.4
			c-21.9,0.9-43.9,0.8-65.9,1c-5.3,0-10.7-0.3-16-0.9c-8.6-1-10.8-3.6-10.7-12.3c0.2-18,1-36,0.8-53.9
			C-1496,855.5-1497,838.3-1497.8,820.4z M-1473.1,920c22.3-0.7,42.9,1.3,63.4-1.6c4.6-0.6,9.2-1.6,13.7-2.9
			c8-2.2,13.7-7.4,18.5-14.3c5.3-7.6,4-15.7,4.2-23.9c0.4-13.9-6.9-22.5-18.3-28.4c-8.7-4.5-17.9-7.2-27.7-7.6
			c-14-0.5-28-1-41.9-1.4c-9.6-0.3-11.1,0.8-11.4,10.6c-0.5,18-0.4,36-0.5,54C-1473.2,909-1473.1,913.7-1473.1,920z"/>
		<path class="st3" d="M336.1,581.7c-6.6,0.2-13.3,0.5-19.9,0.6c-2.3,0-4.5-0.5-7.5-0.8c0-55.1,0-109.8,0-165.9
			c40.8,0,81.2,0,122.5,0c0.3-4.8,0.6-8.4,0.7-11.9c0.1-16.7,0-33.3,0-50c0-3.3,0.5-6.6,0.8-9.9c6,0,12-0.1,18,0.2
			c7.7,0.3,8.6,1.2,8.7,8.9c0.1,14.7,0,29.3,0,44c0,10,0.1,20,0,30c-0.1,10.1-0.7,10.8-10.8,10.9c-32.3,0.1-64.6,0-96.9,0.1
			c-16.8,0-16.5,0-16.3,17.1c0.2,37.6,0,75.3,0.1,112.9C335.4,572.4,335.8,577,336.1,581.7z"/>
		<path class="st2" d="M1720.4,936.8c-11.9,4.9-21.2,2.8-27.2-6.2c-6.9-10.2-13.5-20.6-19.8-31.2c-3.4-5.7-7.4-8.9-14.5-7.8
			c-4.2,0.6-8.6,0-12.9-0.2c-6-0.2-12-0.9-17.9-0.8c-13.5,0.3-15.3,1.6-15.2,14.7c0.1,9.3-1,18.6-1.2,27.9c-0.1,4.5-2,7.1-6.5,6.8
			c-3.9-0.2-8-0.5-11.6-1.8c-3.6-1.3-4.9-4.4-4.7-8.8c1.1-28.6,1.9-57.2,2.7-85.8c0.2-8.3,0-16.6,0-25.2c2.2-0.5,3.7-1.3,5.3-1.2
			c30.6,0.8,61.3-1.6,91.6,4.6c8,1.6,15.9,4.7,23.6,7.7c20.7,8,22,42.2,5.4,53.7c-5.1,3.5-11,6-16.8,8.3c-6.6,2.6-7.6,3.9-3.7,10
			c4.8,7.6,10.4,14.6,15.5,22.1C1715,927.8,1717.6,932.3,1720.4,936.8z M1614.8,869.2c4.5,0.8,7.7,1.8,11,1.9
			c17.6,0.3,35.3,0.7,52.9,0.3c6.5-0.2,13.2-1.9,19.4-4.1c7.6-2.6,10.1-8.4,7.9-16c-1.8-6.4-7.2-8.4-12.8-9.8
			c-23.2-5.8-47-4.2-70.6-5.4c-0.3,0-0.7,0.1-1,0.1c-4.1,0.6-6.9,2.4-6.9,7C1614.8,851.6,1614.8,859.9,1614.8,869.2z"/>
		<path class="st2" d="M180.9,940c-9.2,2.5-17.6,2.5-24.7-5.1c-17.3-18.5-34.5-37-51.9-55.4c-6.4-6.8-13.2-13.1-19.9-19.6
			c-1.7-1.6-3.5-3.1-5.4-4.5c-5.9-4.1-9.4-2.7-10.2,4.2c-0.9,8.6-1.8,17.3-1.9,25.9c-0.3,15-0.1,30,0,45c0.1,8.9-1.4,10.5-10.4,9.4
			c-3.5-0.4-6.8-2-11-3.3c2.3-39.1-2.4-77.7,2.6-116c12.5-3.6,21.4-0.1,30.1,8.6c24.1,23.9,49.1,46.9,73.8,70.3
			c1.3,1.3,3,2.1,5.8,4.1c3.8-28,1.8-54.9,3.1-81.7c1.6-0.7,2.7-1.4,4-1.6c12-1.9,15.9,1.3,16,13.5c0.1,28.6,0,57.3-0.1,85.9
			C180.9,926.3,180.9,932.9,180.9,940z"/>
		<path class="st2" d="M2105.8,820.1c41.6,0,82.2,0,123.1,0c0.7,2.2,1.7,4.3,2,6.5c0.9,6.8-0.9,9.3-7.8,9.7c-9.6,0.7-19.3,0.9-29,1
			c-17.7,0.2-35.3,0-53,0.2c-9.6,0.1-10.5,1.2-11.8,10.8c-0.5,3.6-0.9,7.3-1.2,10.9c-0.1,1.3,0.4,2.6,0.8,4.9
			c3.7,0.5,7.5,1.4,11.4,1.5c9.7,0.3,19.3,0.1,29,0.5c4.8,0.2,9.2,1.3,10.6,7.1c1.2,5.1-0.2,7.8-5.5,8c-7.6,0.4-15.3,0.2-23,0.4
			c-5.3,0.1-10.7,0.4-16,0.7c-4.7,0.3-7.2,3.1-7.2,7.9c0,7,0,14,0.4,21c0.4,6.5,1.3,7.2,7.8,7.7c3,0.2,6,0.1,9,0.1
			c29.3,0,58.6,0,87.5,0c1.6,2.5,2.7,3.8,3.3,5.2c3.5,9.4,1,13.1-9,13c-21.3-0.1-42.6-0.4-64-0.5c-14.6-0.1-29.3,0.1-43.9,0.3
			c-11.5,0.1-16.2-3.5-14.2-14.7c4.1-23.2-0.4-46.5,2.2-69.7c1-8.4-1-17.2-1.6-25.8C2105.7,824.9,2105.8,823,2105.8,820.1z"/>
		<path class="st2" d="M-335.7,920.4c0.9,2.1,2.2,4.1,2.7,6.3c2,7.9,0,10.6-8,10.6c-21.6,0-43.3-0.4-64.9-0.5
			c-15-0.1-29.9,0.1-44.9,0.2c-11.7,0.1-15.9-3.3-13.9-14.8c4.1-22.9-0.8-45.8,2.2-68.7c0.9-7.1-0.6-14.6-1-21.9
			c-0.2-3.6-0.7-7.1-1.1-11c21.4,0,41.9,0,62.4,0c20.2,0,40.5,0,61.4,0c0.5,1.5,1.5,3.7,1.8,5.9c1,6-0.9,9-7,9.5
			c-8.9,0.8-17.9,1.2-26.9,1.3c-18.3,0.2-36.6,0-54.9,0.2c-10.8,0.1-11.7,1.1-12.9,11.9c-1.9,16-1.8,16.1,14.3,16.4
			c8.3,0.1,16.7-0.1,25,0.2c4.6,0.2,9.3,0.7,11.2,6.3c1.9,5.6,0.7,8.4-5.3,8.8c-8.6,0.5-17.3,0.4-26,0.7c-4.6,0.2-9.3,0.5-13.9,1
			c-4.3,0.5-6.4,3.1-6.3,7.4c0.2,7.7,0.2,15.3,0.4,23c0.1,4.1,2.5,5.9,6.4,6c2.7,0.1,5.3,0,8,0C-396.6,919.5-366.4,920-335.7,920.4z
			"/>
		<path class="st3" d="M-2015.5,676.3c16.6-0.2,33.3-0.4,49.9-0.7c3.7,0,7.3,0,11-0.1c4,0,5.8-2,6.4-6
			c5.4-34.9,10.9-69.7,16.4-104.6c1.3-8.6,2.7-17.1,4-25.7c0.6-3.8,2.4-5.9,6.6-5.9c28.7,0.1,57.3,0.2,86,0.3c0.9,0,1.9,0.6,4.1,1.4
			c0.7,6.6,1.5,13.8,2.3,20.9c-21.3-0.2-42.5-0.4-63.8-0.5c-5.4,0-7.4,3.3-8.1,8.2c-2.3,14.4-4.9,28.8-7.1,43.2
			c-4.3,27.6-8.3,55.2-12.5,82.8c-1.1,7.3-1.2,7.7-8.7,7.8c-26.9,0.3-53.8,0.4-80.8,0.3c-6.9,0-8.1-1.7-7.2-8.6
			C-2016.7,684.8-2016.1,680.5-2015.5,676.3z"/>
		<path class="st3" d="M1373.4,676c4.3-0.1,8.6-0.4,13-0.4c69.3,0,138.5,0,207.8,0c4.2,0,8.5,0,13.4,0c0.3-4.5,0.6-7.7,0.6-11
			c0.1-16.6,0-33.3,0.1-49.9c0-3.6,0.7-7.2,1.1-10.8c6.7,0.1,13.3,0.3,20,0.3c4,0,6.2,1.9,6.3,6c0.1,2.7,0.2,5.3,0.2,8
			c0,22.6,0.1,45.2,0.1,67.9c0,2,0,4-0.2,6c-0.4,3.4-2.1,5.5-5.8,5.6c-2.7,0.1-5.3,0.1-8,0.1c-77.9,0-155.7,0-233.6,0
			c-1.7,0-3.3,0-5,0c-8.6-0.2-9.8-1.4-10.2-9.8C1372.9,684,1373.2,680,1373.4,676z"/>
		<path class="st3" d="M242.7,676.1c7.6-0.2,15.3-0.5,22.9-0.5c66.3,0,132.7,0,199,0c3.9,0,7.8,0,12.5,0c0.3-4.4,0.6-7.6,0.6-10.8
			c0.1-16.7,0-33.3,0.1-50c0-3.6,0.5-7.3,0.8-10.9c5.3,0.1,10.7,0.1,16,0.3c8.8,0.2,9.8,1,9.9,9.8c0.1,18,0,36,0.1,54
			c0,7.3,0.5,14.6,0.5,22c0,6.2-1.4,7.5-7.6,7.9c-1.3,0.1-2.7,0-4,0c-79,0-157.9,0-236.9,0c-2,0-4,0.1-6,0c-6.6-0.4-7.4-1.1-7.7-7.6
			C242.6,685.5,242.7,680.8,242.7,676.1z"/>
		<path class="st3" d="M-1607.8,676c4.6-0.1,9.3-0.4,13.9-0.4c65.5,0,131.1,0,196.6,0c3.9,0,7.8,0,12.8,0
			c0.3-24.7,0.6-48.2,0.9-71.6c8.2,0.1,16.5,0.2,25.4,0.3c0.5,5.8,1.3,10.3,1.3,14.9c0.2,22.6,0.2,45.2,0.2,67.8
			c0,9.7-1,10.7-11,10.7c-76.8,0.1-153.6,0.1-230.4,0.1c-8.5,0-9.6-1.2-9.7-9.8C-1607.8,683.9-1607.8,680-1607.8,676z"/>
		<path class="st2" d="M1189.2,822c5.7-0.3,10.3-0.6,15.9-0.9c1.3,4.9,3.3,9.2,3.4,13.7c0.6,23,1.5,46,0.6,68.9
			c-0.7,18.2-12.1,30.1-29.6,34.6c-20,5.2-40.4,5.2-60.6,3.1c-19.1-2-32.9-12.5-38.8-31.3c-2.4-7.6-4.8-15.5-5-23.3
			c-0.7-21.3-0.2-42.5-0.2-63.6c0.8-0.5,1.4-1.1,2-1.2c14-2.8,17.7-0.3,18.7,13.8c1.5,20.3,2.9,40.5,3.4,60.8
			c0.3,12.2,6.2,19,16.8,23.2c16.9,6.8,34.4,7.8,52,3.9c13.4-3,21.1-14.4,22.6-30.6c1.9-20.3,1.6-40.6-0.6-60.8
			C1189.4,829.3,1189.4,826.3,1189.2,822z"/>
		<path class="st2" d="M-2020.7,933.2c17.9-26.8,34.7-51.9,51.3-77.2c6.6-10,12.7-20.2,18.8-30.5c4.4-7.5,16.7-9.1,22.4-2.2
			c3.4,4.1,6.3,8.6,8.9,13.2c17.2,30.4,34.2,60.9,51.2,91.4c1.4,2.4,2.2,5.2,3.2,7.8c-13.4,5.3-19.7,3.1-25.4-8.1
			c-2.4-4.7-4.5-9.7-6.7-14.5c-3.7-8-9.7-12.5-18.7-12.5c-16.6-0.1-33.2,0-49.9-0.3c-4.4-0.1-6.6,2.4-8.8,5.4
			c-6.2,8.6-12.5,17.2-18.6,25.9c-4.2,5.9-10,7.7-16.6,6.4C-2012.9,937.4-2016,935.3-2020.7,933.2z M-1960,878
			c0.6,0.9,1.1,1.8,1.7,2.7c12.7,0,25.4,0,39.2,0c-6.1-11.2-9.4-23.4-20.1-33.4C-1946.5,858-1953.2,868-1960,878z"/>
		<path class="st2" d="M-985.8,820.9c17.9-3.2,20.4-1.8,28.5,11.7c13.3,22.3,26.9,44.4,40.6,66.5c2,3.3,4.9,6,7.7,9.4
			c2.2-2.5,4-4.1,5.2-5.9c17.6-26.3,35.4-52.4,52.5-79.1c4.7-7.3,10.7-4.9,16.7-5.5c4.1,5.1,2.5,9.6-0.5,14.5
			c-14.9,24-29.7,48.2-44.4,72.4c-5,8.2-9.6,16.8-14.3,25.2c-6.2,11-19,11.8-26.5,1.4c-4.3-6-8-12.3-11.7-18.6
			c-16.2-27.2-32.3-54.4-48.4-81.6C-982.4,828.2-983.8,824.9-985.8,820.9z"/>
		<path class="st2" d="M687,818.1c0.9,1.4,1.7,2.4,2.2,3.6c4.7,10.3,2.8,13.4-8.3,13.5c-9.3,0.1-18.7-0.1-28,0
			c-9.7,0.1-10.9,1.4-11,11c-0.2,16.3-0.2,32.7-0.5,49c-0.2,12-0.5,23.9-0.7,35.9c-0.1,6.8-1.2,8.4-8.2,8.2c-4.8-0.1-9.5-1.5-14-2.3
			c0-11.4,0.1-21.4,0-31.3c-0.1-18.7-0.3-37.3-0.5-56c0-2.3-0.2-4.7-0.5-7c-0.5-5-2.8-7.7-8.3-7.7c-11.3,0-22.6-0.4-33.9-1
			c-4.2-0.2-8.3-1.4-12.4-2.1c-0.4-2.2-0.8-3.5-0.8-4.7c-0.2-10.9,0.3-11.5,11.1-11.2c28,0.6,56,1.5,83.9,2.1
			C667,818.3,677,818.1,687,818.1z"/>
		<path class="st3" d="M1848.2,325.9c-8.2-7.1-16.8-13.9-24.5-21.5c-16.9-16.8-30.6-36-39.3-58.4c-8.2-21.2-9.6-42.9-3.5-64.7
			c2-7.2,5.4-14.4,9.4-20.8c18.8-29.2,67.3-22.3,78.3,5c-4.9-0.3-9.9-0.6-14.8-0.9c-20.4-1.1-33.4,10-41.3,27.1
			c-9.6,20.5-10.6,42.1-4.4,64.2c6.8,24.2,19.7,44.7,36,63.5C1845.6,321.3,1846.8,323.7,1848.2,325.9z"/>
		<path class="st3" d="M1906,208.6c16.6-3.2,33.2-6.4,49.8-9.5c4.9-0.9,9.7-1.9,15.5-3.1c0.2-8.7-1.3-16.7-3.1-24.7
			c-5.1-23.3-14.1-44.9-28.7-64c-0.8-1-1-2.4-1.4-3.7c5.6,4,11.9,7.2,16.7,12c24.7,24.6,37.5,55.1,42.8,89.1
			c0.6,3.6,0.8,7.2,1.2,10.9c0,0.3-0.2,0.6-0.8,2c-4,1.1-8.6,2.6-13.3,3.5c-20.2,3.9-40.5,7.6-60.7,11.4c-2.3,0.4-4.6,0.6-6.9,0.9
			c-4,0.5-6.3-1.2-7-5.2C1908.7,221.6,1907.3,215.1,1906,208.6z"/>
		<path class="st3" d="M852.3,695c18.7,6.9,37.8,11.5,58.8,10.2c0.3-4.5,0.6-8,0.6-11.6c0.1-16.6,0-33.2,0-49.8
			c0-2.6,0.4-5.2,0.6-7.9c6.7,1.9,13.2,4.4,20,5.7c5.6,1,6.9,3.9,6.8,8.9c-0.1,18.3,0,36.6,0,54.9c0,5,0,10,0,15
			c0,5-2.5,7.2-7.4,7.2c-25.6,0-49.5-5.8-70.2-21.4C857.9,703.4,855.4,698.8,852.3,695z"/>
		<path class="st3" d="M679.9,663.9c11.1,4.1,22,9.3,33.5,12.2c34,8.8,67.1,6.2,98.7-9.8c1.4-0.7,3-1.2,4.2-1.6
			c8,8.1,15.6,15.8,23.2,23.6c-29.5,15.4-60.6,18.2-93,12c-22.8-4.3-42.7-14.2-60.5-28.7C683.5,669.6,681.9,666.5,679.9,663.9z"/>
		<path class="st3" d="M-1386,158.7c16.6-0.3,33.1-0.6,49.7-0.8c6.5-0.1,13.1,0,20.4,0c0,8.3,0,15.2,0,22.1
			c-20.2,0.2-40.3,0.4-60.5,0.6c-7.8,0.1-9.2-1.2-9.5-9C-1386.1,167.3-1386,163-1386,158.7z"/>
		<path class="st3" d="M-860.4,158.5c19.5-0.2,39-0.4,58.4-0.6c3.6,0,7.1,0,11.7,0c0,8.2,0,15.3,0,22.4c-19.6-0.1-39.2-0.2-58.8-0.2
			c-10.1,0-10.7-0.6-11-10.6C-860.1,165.8-860.3,162.2-860.4,158.5z"/>
		<path class="st3" d="M2066,158.7c17.5-0.3,35-0.6,52.6-0.8c5.5-0.1,11.1,0,18,0c0,7,0.2,12.9-0.1,18.7c-0.2,5.4-4.4,6.1-8.5,6.1
			c-16.5,0-33.1-0.2-49.6-0.3c-13.5-5.4-11.7-1.2-12.6-18c0,0,0,0.7,0,0.7C2065.9,163,2065.9,160.9,2066,158.7z"/>
		<path class="st3" d="M1807.7,592.3c-9.1-2.5-15.6-8.7-21.2-15.7c-12.2-15.2-20-32.5-21.7-52.2c4.6-0.4,9.3-0.8,13.9-1.3
			c6.6-0.7,8.1,0.1,9.6,6.9c1.2,5.2,1.9,10.5,2.9,15.7c2.9,14.4,6.9,28.4,14.6,41.1C1806.7,588.3,1807,590.4,1807.7,592.3z"/>
		<path class="st3" d="M98.2,109.5c-1.1-0.9-2.1-1.8-3.2-2.6C96.1,107.7,97.2,108.6,98.2,109.5z"/>
		<path class="st3" d="M102.2,113.8c-1.3-1.4-2.6-2.8-3.8-4.1C99.7,111,100.9,112.4,102.2,113.8z"/>
		<path class="st3" d="M1902.1,373.9c-1.4-1.4-2.8-2.8-4.2-4.1C1899.3,371.1,1900.7,372.5,1902.1,373.9z"/>
		<path class="st1" d="M2347,86.8c0,0,0.1,0.2,0.1,0.2C2347.1,87,2347,86.8,2347,86.8z"/>
		<path class="st1" d="M2163.2,695.1C2163.2,695.1,2163.2,695.1,2163.2,695.1c0.3,0,0.4,0,0.6,0
			C2163.6,695.2,2163.4,695.1,2163.2,695.1z"/>
		<path class="st3" d="M1041.3,656.3c0.5-0.1,0.8,0.1,0.8,0.5c0,0-0.9,0-0.9,0L1041.3,656.3z"/>
		<path class="st3" d="M1894.3,366.3c-1.2-1.3-2.4-2.6-3.6-3.9C1891.9,363.7,1893.1,365,1894.3,366.3z"/>
		<path class="st3" d="M1856.6,333.1c-1-0.9-2.1-1.8-3.1-2.7C1854.5,331.3,1855.5,332.2,1856.6,333.1z"/>
		<path class="st3" d="M1853.5,330.5c-1.1-1-2.3-1.9-3.4-2.9C1851.2,328.5,1852.4,329.5,1853.5,330.5z"/>
		<path class="st3" d="M-451.6,661c1.3,0.9,2.5,1.9,3.8,2.8C-449.1,662.8-450.3,661.9-451.6,661z"/>
		<path class="st3" d="M677.5,662.1c0.9,0.6,1.7,1.3,2.6,1.9C679.2,663.3,678.3,662.7,677.5,662.1z"/>
		<path class="st3" d="M1898.1,369.9c-0.8-0.7-1.6-1.4-2.4-2.1C1896.5,368.5,1897.3,369.2,1898.1,369.9z"/>
		<path class="st3" d="M1938.2,103.7c-0.6-0.5-1.2-1-1.8-1.5C1937,102.7,1937.6,103.2,1938.2,103.7z"/>
		<path class="st3" d="M857.9,103l-0.7-0.2c0,0-0.2-0.7-0.2-0.6C857.6,102.2,857.9,102.5,857.9,103z"/>
		<path class="st3" d="M-959.3,80.6c0,0,0,0.3,0,0.3C-959.2,80.9-959.3,80.6-959.3,80.6z"/>
		<path class="st3" d="M1850.3,327.7c-0.8-0.7-1.5-1.3-2.3-2C1848.7,326.4,1849.5,327.1,1850.3,327.7z"/>
		<path class="st3" d="M1858.1,334.8c-0.4-0.5-0.9-1-1.3-1.5C1857.3,333.8,1857.7,334.3,1858.1,334.8z"/>
		<path class="st1" d="M2065.8,165.1c0,0,0-0.7,0-0.7c-0.2,0.2-0.4,0.4-0.6,0.6C2065.4,165.1,2065.6,165.1,2065.8,165.1z"/>
		<path class="st3" d="M1031.1,648.9c0,0-0.1-0.3-0.1-0.3S1031.1,648.9,1031.1,648.9z"/>
		<path class="st3" d="M1608.8,78.6c0,0,0,0.3,0,0.3C1608.8,78.9,1608.8,78.6,1608.8,78.6z"/>
		<path class="st3" d="M1751.8,662.4c0,0,0.2,0.1,0.2,0.1C1752,662.5,1751.8,662.4,1751.8,662.4z"/>
		<path class="st3" d="M861.9,106.3c-0.8-0.7-1.7-1.3-2.5-2C860.2,105,861.1,105.7,861.9,106.3z"/>
		<path class="st0" d="M791.7,173.9c5.3,7.5,8.5,15.7,8.7,25c0.2,9,0.2,18,0.2,27c-0.1,102.8-0.3,205.6-0.1,308.5
			c0.1,31.6-26,56.9-60.8,53c-3.8-0.4-7.3-2.8-10.9-4.3c-5.8-10.7-6.1-22.3-6.1-34c-0.1-106.3-0.1-212.6,0-318.9
			c0-4.7,0.5-9.3,0.7-14c0.9-18.3,22.8-41.2,39.8-42.4C772.5,173,782.1,173.8,791.7,173.9z"/>
		<path class="st3" d="M791.7,173.9c-9.6-0.1-19.2-0.9-28.6-0.2c-17,1.2-38.9,24.1-39.8,42.4c-0.2,4.7-0.7,9.3-0.7,14
			c0,106.3,0,212.6,0,318.9c0,11.7,0.3,23.3,6.1,34c-16.1-3.7-30.5-20.8-32.6-38.8c-0.5-4.3-0.6-8.6-0.6-13
			c0-107.9,0-215.9-0.1-323.8c0-15.2,2.9-29.1,13.7-40.5C733.8,140.5,775.2,146.5,791.7,173.9z"/>
		<path class="st0" d="M36.3,179c7.4,8.2,8.9,18.4,9.4,28.8c0.3,6.7,0.1,13.3,0.1,20c0,96.3,0,192.6,0,288.9c0,6.7-0.3,13.3-0.7,20
			c-1.4,23.9-27.6,46.1-49.2,45.5c-10-0.3-20-0.3-30-0.4c-0.1-6-0.3-12-0.3-18c0-115.9,0-231.8,0-347.7c0-9.7,0.1-19.3,0.2-29
			c0.2-9.2,0.4-9.7,9.7-9.5C-4.3,177.8,16,178.5,36.3,179z"/>
		<path class="st3" d="M36.3,179c-20.3-0.5-40.6-1.1-60.9-1.4c-9.2-0.1-9.5,0.3-9.7,9.5c-0.2,9.7-0.2,19.3-0.2,29
			c0,115.9,0,231.8,0,347.7c0,6,0.2,12,0.3,18c-8.6,0-17.2,0-25.8,0c-2.1-7.3-2.8-411.7-0.6-425.6c3.3-0.3,6.8-0.7,10.3-0.8
			c15,0,30-0.1,45,0.2C12.7,156,26.6,163.9,36.3,179z"/>
		<path class="st3" d="M-1882,441.9c-9.9,1.9-19.7,1-30.8,0.7c11-77.8,21.9-154.5,32.8-231.2c0.7,0,1.4-0.1,2.1-0.1
			c0.8,5.2,1.6,10.5,2.4,15.7c3.9,27.4,7.7,54.7,11.5,82.1c0.4,2.9,0.2,6,0.3,9c-0.8,3.5-1.9,7.1-2.4,10.7
			c-3.7,25.6-7.4,51.2-11,76.8C-1879,417.6-1880.5,429.7-1882,441.9z"/>
		<path class="st0" d="M-1882,441.9c1.6-12.1,3.1-24.3,4.8-36.4c3.6-25.6,7.2-51.2,11-76.8c0.5-3.6,1.6-7.1,2.4-10.7
			c1.5,7.4,3.4,14.8,4.5,22.3c4.6,31.3,8.9,62.6,13.3,94c0.3,1.9,0.3,3.9,0.5,5.7C-1852.7,443.3-1867.1,443.9-1882,441.9z"/>
		<path class="st0" d="M-1473.1,920c0-6.3,0-11,0-15.6c0.1-18,0-36,0.5-54c0.2-9.7,1.8-10.8,11.4-10.6c14,0.4,28,0.9,41.9,1.4
			c9.8,0.4,19.1,3.1,27.7,7.6c11.4,5.9,18.7,14.5,18.3,28.4c-0.2,8.3,1.1,16.3-4.2,23.9c-4.8,6.9-10.5,12-18.5,14.3
			c-4.5,1.3-9.1,2.2-13.7,2.9C-1430.2,921.3-1450.8,919.3-1473.1,920z"/>
		<path class="st0" d="M1614.8,869.2c0-9.4,0-17.6,0-25.9c0-4.6,2.8-6.4,6.9-7c0.3,0,0.7-0.1,1-0.1c23.6,1.2,47.4-0.5,70.6,5.4
			c5.6,1.4,10.9,3.4,12.8,9.8c2.2,7.5-0.2,13.3-7.9,16c-6.2,2.2-12.9,3.9-19.4,4.1c-17.6,0.4-35.3,0-52.9-0.3
			C1622.5,871.1,1619.3,870,1614.8,869.2z"/>
		<path class="st0" d="M-1960,878c6.8-10,13.5-20,20.8-30.8c10.7,10,14.1,22.2,20.1,33.4c-13.8,0-26.5,0-39.2,0
			C-1958.9,879.7-1959.4,878.8-1960,878z"/>
	</g>
</g>
<g id="Layer_2">
</g>
</svg>
